<?xml version="1.0" encoding="utf-8"?>
<!-- Generator: Adobe Illustrator 24.0.1, SVG Export Plug-In . SVG Version: 6.00 Build 0)  -->
<svg version="1.1" id="Слой_1" xmlns="http://www.w3.org/2000/svg" xmlns:xlink="http://www.w3.org/1999/xlink" x="0px" y="0px"
	 viewBox="0 0 1080 1080" style="enable-background:new 0 0 1080 1080;" xml:space="preserve">
<style type="text/css">
	.st0{fill:#FCEF5A;}
	.st1{fill:#F3E107;}
	.st2{fill:#FAAE17;}
	.st3{fill:#FFFFFF;}
	.st4{fill:#161B1D;}
</style>
<g>
	<polygon class="st0" points="449.36,250.85 540.34,93.28 631.3,250.85 	"/>
	<polygon class="st0" points="296.69,359.58 277.67,178.63 443.89,252.64 	"/>
	<polygon class="st0" points="237.07,537.27 115.33,402.06 293.29,364.24 	"/>
	<polygon class="st0" points="293.29,716.07 115.33,678.25 237.07,543.03 	"/>
	<polygon class="st0" points="443.87,827.68 277.67,901.68 296.68,720.74 	"/>
	<polygon class="st0" points="631.3,829.46 540.34,987.02 449.36,829.46 	"/>
	<polygon class="st0" points="783.98,720.74 802.99,901.68 636.79,827.68 	"/>
	<polygon class="st0" points="843.59,543.05 965.33,678.25 787.37,716.07 	"/>
	<polygon class="st0" points="787.37,364.24 965.33,402.06 843.59,537.28 	"/>
	<polygon class="st0" points="636.79,252.64 802.99,178.63 783.98,359.58 	"/>
	<g>
		<path class="st1" d="M540.33,234.17v611.96c-169,0-305.98-136.99-305.98-305.98C234.34,371.17,371.33,234.17,540.33,234.17z"/>
		<path class="st2" d="M846.31,540.15c0,168.99-136.98,305.98-305.98,305.98V234.17C709.33,234.17,846.31,371.17,846.31,540.15z"/>
	</g>
	<path class="st3" d="M615.97,625.97c0,13.77-3.69,26.7-10.12,37.82H474.82c-6.46-11.12-10.15-24.05-10.15-37.82H615.97z"/>
	<path class="st0" d="M540.34,764.07c-13.31,0-24.08,10.78-24.08,24.07h48.16C564.41,774.85,553.62,764.07,540.34,764.07z"/>
	<path class="st1" d="M590.47,573.9c0,6.7-5.42,12.11-12.11,12.11c-6.69,0-12.11-5.41-12.11-12.11c0-6.69,5.42-12.11,12.11-12.11
		C585.05,561.79,590.47,567.21,590.47,573.9z"/>
	<path class="st1" d="M672.74,598.12c0,6.69-5.44,12.11-12.12,12.11c-6.68,0-12.11-5.42-12.11-12.11c0-6.68,5.43-12.12,12.11-12.12
		C667.3,586,672.74,591.44,672.74,598.12z"/>
	<path class="st1" d="M756.58,598.12c0,6.69-5.44,12.11-12.12,12.11c-6.69,0-12.1-5.42-12.1-12.11c0-6.68,5.41-12.12,12.1-12.12
		C751.14,586,756.58,591.44,756.58,598.12z"/>
	<path class="st2" d="M500.06,586c0,6.7-5.42,12.12-12.1,12.12c-6.7,0-12.11-5.42-12.11-12.12c0-6.68,5.41-12.11,12.11-12.11
		C494.64,573.9,500.06,579.32,500.06,586z"/>
	
		<ellipse transform="matrix(0.9239 -0.3827 0.3827 0.9239 -194.4293 170.3278)" class="st2" cx="330.93" cy="573.9" rx="12.11" ry="12.11"/>
	<path class="st2" d="M420.03,622.34c0,6.69-5.42,12.11-12.11,12.11c-6.69,0-12.1-5.42-12.1-12.11c0-6.69,5.41-12.11,12.1-12.11
		C414.62,610.23,420.03,615.65,420.03,622.34z"/>
	<polygon class="st0" points="605.32,339.86 540.33,452.44 475.34,339.86 	"/>
	<path class="st4" d="M695.24,520.82c0,9.09-7.38,16.46-16.46,16.46c-9.08,0-16.45-7.37-16.45-16.46c0-9.09,7.36-16.45,16.45-16.45
		C687.86,504.37,695.24,511.73,695.24,520.82z"/>
	<path class="st4" d="M418.33,520.82c0,9.09-7.37,16.46-16.44,16.46c-9.1,0-16.46-7.37-16.46-16.46c0-9.09,7.36-16.45,16.46-16.45
		C410.96,504.37,418.33,511.73,418.33,520.82z"/>
	<path class="st4" d="M605.85,663.79c-13.07,22.62-37.51,37.82-65.53,37.82c-27.98,0-52.45-15.2-65.5-37.82H605.85z"/>
</g>
</svg>
