<?xml version="1.0" encoding="UTF-8"?>
<svg width="70px" height="20px" viewBox="0 0 70 20" version="1.1" xmlns="http://www.w3.org/2000/svg" xmlns:xlink="http://www.w3.org/1999/xlink">
    <title>Combined Shape</title>
    <g id="makers" stroke="none" stroke-width="1" fill="none" fill-rule="evenodd">
        <g id="tshirt_black" transform="translate(-51.000000, -70.000000)" fill="#000000">
            <path d="M120.279303,70 L120.279303,90 L109.741668,90 L109.741668,70 L120.279303,70 Z M73.9997329,76.4731183 C74.5015275,76.4731183 74.9997304,76.5089602 75.4943565,76.5806452 C75.9889826,76.6523301 76.4370068,76.799282 76.8384425,77.0215054 C77.2398782,77.2437287 77.5624556,77.5555535 77.8061845,77.9569892 C78.0499133,78.3584249 78.1717759,78.8817172 78.1717759,79.5268817 L78.1717759,85.2473118 C78.1717759,85.6774215 78.1968652,85.9928305 78.2470447,86.1935484 C78.2972241,86.3942662 78.4656812,86.4946237 78.752421,86.4946237 C78.9101279,86.4946237 79.096506,86.4587817 79.3115608,86.3870968 L79.3115608,87.8064516 C78.996147,87.9928325 78.5588754,88.0860215 77.9997329,88.0860215 C77.5266122,88.0860215 77.1502719,87.9534063 76.8707006,87.688172 C76.5911293,87.4229377 76.4513458,86.9892503 76.4513458,86.3870968 C75.9495511,86.9892503 75.3653276,87.4229377 74.6986576,87.688172 C74.0319876,87.9534063 73.3115647,88.0860215 72.5373673,88.0860215 C72.0355726,88.0860215 71.5588749,88.0286744 71.1072597,87.9139785 C70.6556446,87.7992826 70.2649675,87.6200729 69.9352167,87.3763441 C69.605466,87.1326153 69.3438198,86.813622 69.1502705,86.4193548 C68.9567211,86.0250876 68.8599479,85.5483899 68.8599479,84.9892473 C68.8599479,84.3584198 68.9674737,83.8422959 69.1825286,83.4408602 C69.3975834,83.0394245 69.6807347,82.7132629 70.0319909,82.4623656 C70.3832472,82.2114683 70.7846768,82.021506 71.236292,81.8924731 C71.6879072,81.7634402 72.1502681,81.6559144 72.6233888,81.5698925 C73.1251834,81.4695335 73.6018811,81.3942655 74.0534963,81.344086 C74.5051115,81.2939066 74.9029569,81.2222227 75.2470447,81.1290323 C75.5911324,81.0358418 75.8635311,80.8996425 76.064249,80.7204301 C76.2649668,80.5412177 76.3653243,80.2795716 76.3653243,79.9354839 C76.3653243,79.5340482 76.2900562,79.2114708 76.1395178,78.9677419 C75.9889794,78.7240131 75.795433,78.5376351 75.5588726,78.4086022 C75.3223123,78.2795692 75.057082,78.1935486 74.7631737,78.1505376 C74.4692654,78.1075267 74.1789458,78.0860215 73.892206,78.0860215 C73.1180086,78.0860215 72.4728537,78.2329734 71.9567221,78.5268817 C71.4405905,78.82079 71.1610234,79.37634 71.1180124,80.1935484 L69.2900554,80.1935484 C69.3187294,79.5053729 69.4620972,78.9247335 69.720163,78.4516129 C69.9782288,77.9784923 70.3223113,77.5949835 70.752421,77.3010753 C71.1825307,77.007167 71.6735652,76.7956996 72.2255393,76.6666667 C72.7775134,76.5376338 73.3689053,76.4731183 73.9997329,76.4731183 Z M96.7954318,76.4731183 C97.784684,76.4731183 98.6054644,76.6774173 99.2577974,77.0860215 C99.9101304,77.4946257 100.433423,78.0143338 100.82769,78.6451613 C101.221957,79.2759888 101.494356,79.964154 101.644894,80.7096774 C101.795433,81.4552009 101.856364,82.1648712 101.82769,82.8387097 L93.5051092,82.8387097 C93.4907722,83.3261673 93.5481193,83.7885283 93.6771522,84.2258065 C93.8061851,84.6630846 94.0140683,85.0501775 94.3008081,85.3870968 C94.5875479,85.724016 94.9531356,85.9928305 95.3975823,86.1935484 C95.842029,86.3942662 96.3653212,86.4946237 96.9674748,86.4946237 C97.7416722,86.4946237 98.3760745,86.315414 98.8707006,85.9569892 C99.3653267,85.5985645 99.6914883,85.0537671 99.8491952,84.3225806 L101.655647,84.3225806 C101.411918,85.5698987 100.874289,86.5089574 100.042744,87.1397849 C99.2111982,87.7706125 98.1646137,88.0860215 96.9029587,88.0860215 C96.0140653,88.0860215 95.2434637,87.9426538 94.5911307,87.655914 C93.9387977,87.3691742 93.3904161,86.9677445 92.9459694,86.4516129 C92.5015227,85.9354813 92.1681927,85.319 91.9459694,84.6021505 C91.7237461,83.8853011 91.5982993,83.1039469 91.5696253,82.2580645 C91.5696253,81.4121822 91.6986563,80.6379963 91.9567221,79.9354839 C92.2147879,79.2329714 92.5767915,78.6236585 93.0427436,78.1075269 C93.5086958,77.5913953 94.0606616,77.1899656 94.6986576,76.9032258 C95.3366536,76.616486 96.0355713,76.4731183 96.7954318,76.4731183 Z M114.558873,76.4731183 C114.071415,76.4731183 113.58038,76.5340496 113.085754,76.655914 C112.591128,76.7777784 112.146688,76.9641565 111.752421,77.2150538 C111.358154,77.4659511 111.035576,77.7921127 110.784679,78.1935484 C110.533782,78.5949841 110.408335,79.075266 110.408335,79.6344086 C110.408335,80.3512581 110.587545,80.9103923 110.945969,81.311828 C111.304394,81.7132637 111.752418,82.0250885 112.290055,82.2473118 C112.827693,82.4695352 113.411916,82.6415765 114.042744,82.7634409 C114.673571,82.8853053 115.257795,83.0215046 115.795432,83.172043 C116.333069,83.3225814 116.781093,83.519712 117.139518,83.7634409 C117.497943,84.0071697 117.677152,84.365589 117.677152,84.8387097 C117.677152,85.1827974 117.591132,85.4659487 117.419088,85.688172 C117.247044,85.9103954 117.028408,86.0788525 116.763174,86.1935484 C116.497939,86.3082443 116.20762,86.3870966 115.892206,86.4301075 C115.576792,86.4731183 115.27572,86.4946237 114.98898,86.4946237 C114.616218,86.4946237 114.254215,86.4587817 113.902959,86.3870968 C113.551702,86.3154118 113.236293,86.1971334 112.956722,86.0322581 C112.677151,85.8673827 112.451347,85.6451627 112.279303,85.3655914 C112.107259,85.0860201 112.01407,84.7455217 111.999733,84.344086 L111.999733,84.344086 L110.171776,84.344086 C110.20045,85.0322615 110.343818,85.6164851 110.601883,86.0967742 C110.859949,86.5770633 111.204032,86.9641562 111.634141,87.2580645 C112.064251,87.5519728 112.55887,87.7634402 113.118012,87.8924731 C113.677155,88.021506 114.264963,88.0860215 114.881453,88.0860215 C115.440596,88.0860215 116.003314,88.0322586 116.569625,87.9247312 C117.135936,87.8172038 117.644892,87.6272415 118.096507,87.3548387 C118.548122,87.0824359 118.91371,86.7240166 119.193281,86.2795699 C119.472853,85.8351232 119.612636,85.275989 119.612636,84.6021505 C119.612636,84.0716819 119.508694,83.6272419 119.300808,83.2688172 C119.092922,82.9103925 118.820523,82.6129044 118.483604,82.3763441 C118.146685,82.1397838 117.759592,81.9498215 117.322313,81.8064516 C116.885035,81.6630817 116.437011,81.5412191 115.978227,81.4408602 C115.548118,81.3405013 115.118015,81.2437281 114.687905,81.1505376 C114.257795,81.0573472 113.870702,80.942653 113.526615,80.8064516 C113.182527,80.6702502 112.899376,80.4982089 112.677152,80.2903226 C112.454929,80.0824362 112.343819,79.8207901 112.343819,79.5053763 C112.343819,79.2186366 112.415503,78.985664 112.558873,78.8064516 C112.702243,78.6272392 112.888621,78.4838715 113.118012,78.3763441 C113.347404,78.2688167 113.601882,78.1935486 113.881453,78.1505376 C114.161025,78.1075267 114.437007,78.0860215 114.70941,78.0860215 C115.010487,78.0860215 115.307975,78.1182792 115.601883,78.1827957 C115.895792,78.2473122 116.164606,78.3512538 116.408335,78.4946237 C116.652064,78.6379935 116.852779,78.8279558 117.010486,79.0645161 C117.168192,79.3010765 117.261381,79.5985645 117.290055,79.9569892 L117.290055,79.9569892 L119.118012,79.9569892 C119.075001,79.2831508 118.931634,78.7204324 118.687905,78.2688172 C118.444176,77.817202 118.118014,77.4587827 117.70941,77.1935484 C117.300806,76.9283141 116.831277,76.741936 116.300808,76.6344086 C115.77034,76.5268812 115.1897,76.4731183 114.558873,76.4731183 Z M63.0104855,76.4731183 C63.5696281,76.4731183 64.0749994,76.5340496 64.5266146,76.655914 C64.9782297,76.7777784 65.3653226,76.9677406 65.6879049,77.2258065 C66.0104872,77.4838723 66.2613807,77.8172023 66.4405931,78.2258065 C66.6198054,78.6344106 66.7094103,79.1254452 66.7094103,79.6989247 L66.7094103,87.8494624 L64.8814533,87.8494624 L64.8814533,80.5591398 C64.8814533,80.215052 64.8527797,79.8924746 64.7954318,79.5913978 C64.7380838,79.2903211 64.630558,79.0286749 64.4728511,78.8064516 C64.3151443,78.5842283 64.0965084,78.4086028 63.8169372,78.2795699 C63.5373659,78.150537 63.1753623,78.0860215 62.7309156,78.0860215 C61.8276853,78.0860215 61.1180124,78.3440834 60.6018834,78.8602151 C60.0857518,79.3763467 59.8276898,80.0645118 59.8276898,80.9247312 L59.8276898,87.8494624 L57.9997329,87.8494624 L57.9997329,80.5591398 C57.9997329,80.2007151 57.9674751,79.8709692 57.9029587,79.5698925 C57.8384422,79.2688157 57.7273322,79.0071696 57.5696253,78.7849462 C57.4119184,78.5627229 57.200451,78.3906816 56.9352167,78.2688172 C56.6699824,78.1469528 56.329484,78.0860215 55.9137113,78.0860215 C55.3832427,78.0860215 54.9280502,78.1935473 54.5481199,78.4086022 C54.1681897,78.623657 53.8599491,78.8817189 53.6233888,79.1827957 C53.3868284,79.4838725 53.2147872,79.7956973 53.1072597,80.1182796 C52.9997323,80.4408618 52.9459694,80.7096763 52.9459694,80.9247312 L52.9459694,87.8494624 L51.1180124,87.8494624 L51.1180124,76.7311828 L52.8384425,76.7311828 L52.8384425,78.3655914 L52.8814533,78.3655914 C53.7129987,77.1039363 54.9101193,76.4731183 56.4728511,76.4731183 C57.1610266,76.4731183 57.7846763,76.616486 58.3438189,76.9032258 C58.9029615,77.1899656 59.2972227,77.6774159 59.5266146,78.3655914 C59.8993763,77.7634378 60.3904108,77.2974927 60.9997329,76.9677419 C61.6090549,76.6379912 62.2792991,76.4731183 63.0104855,76.4731183 Z M82.9459694,72.4946237 L82.9459694,81.5913978 L88.0212382,76.7311828 L90.4728511,76.7311828 L86.064249,80.7741935 L90.7954318,87.8494624 L88.4728511,87.8494624 L84.6663995,82.0430108 L82.9459694,83.6344086 L82.9459694,87.8494624 L81.1180124,87.8494624 L81.1180124,72.4946237 L82.9459694,72.4946237 Z M109.505109,76.4731183 L109.505109,78.4086022 C108.773923,78.4086022 108.150273,78.5089596 107.634141,78.7096774 C107.11801,78.9103953 106.702243,79.2042991 106.38683,79.5913978 C106.071416,79.9784966 105.842027,80.4480259 105.698658,81 C105.555288,81.5519741 105.483604,82.1863763 105.483604,82.9032258 L105.483604,87.8494624 L103.655647,87.8494624 L103.655647,76.7311828 L105.376077,76.7311828 L105.376077,79.0752688 L105.419088,79.0752688 C105.863534,78.1720385 106.408332,77.5053785 107.053496,77.0752688 C107.698661,76.6451591 108.515857,76.4444443 109.505109,76.4731183 Z M76.3438189,82.1075269 C76.114427,82.2795708 75.8133548,82.4050175 75.4405931,82.483871 C75.0678313,82.5627244 74.6771543,82.6272399 74.2685501,82.6774194 C73.8599459,82.7275988 73.4477636,82.7849459 73.0319909,82.8494624 C72.6162182,82.9139788 72.2434621,83.0179204 71.9137113,83.1612903 C71.5839606,83.3046602 71.3151461,83.5089592 71.1072597,83.7741935 C70.8993734,84.0394278 70.7954318,84.4014314 70.7954318,84.8602151 C70.7954318,85.1612918 70.8563631,85.4157696 70.9782275,85.6236559 C71.1000919,85.8315423 71.2577964,85.9999994 71.4513458,86.1290323 C71.6448951,86.2580652 71.8706993,86.3512542 72.1287651,86.4086022 C72.3868309,86.4659501 72.6592296,86.4946237 72.9459694,86.4946237 C73.548123,86.4946237 74.0642468,86.4121872 74.4943565,86.2473118 C74.9244662,86.0824365 75.2757172,85.8745532 75.5481199,85.6236559 C75.8205227,85.3727586 76.0212376,85.1003599 76.1502705,84.8064516 C76.2793034,84.5125433 76.3438189,84.2365604 76.3438189,83.9784946 L76.3438189,82.1075269 Z M96.6879049,78.0860215 C96.2147843,78.0860215 95.7882652,78.168458 95.408335,78.3333333 C95.0284048,78.4982087 94.7022432,78.7240129 94.4298404,79.0107527 C94.1574376,79.2974925 93.942386,79.6308225 93.7846791,80.0107527 C93.6269722,80.3906829 93.5337832,80.7956968 93.5051092,81.2258065 L99.892206,81.2258065 C99.863532,80.7956968 99.7667588,80.3870987 99.6018834,80 C99.437008,79.6129013 99.214788,79.2795713 98.9352167,79 C98.6556454,78.7204287 98.3258996,78.4982087 97.9459694,78.3333333 C97.5660392,78.168458 97.1466886,78.0860215 96.6879049,78.0860215 Z" id="Combined-Shape"></path>
        </g>
    </g>
</svg>