<?xml version="1.0" encoding="utf-8"?>
<!-- Generator: Adobe Illustrator 24.0.1, SVG Export Plug-In . SVG Version: 6.00 Build 0)  -->
<svg version="1.1" id="Слой_1" xmlns="http://www.w3.org/2000/svg" xmlns:xlink="http://www.w3.org/1999/xlink" x="0px" y="0px"
	 viewBox="0 0 1080 1080" style="enable-background:new 0 0 1080 1080;" xml:space="preserve">
<style type="text/css">
	.st0{fill:#2754A4;}
	.st1{fill:#FADB00;}
	.st2{fill:#F4A91C;}
</style>
<g>
	
		<ellipse transform="matrix(0.7071 -0.7071 0.7071 0.7071 -227.9938 555.3844)" class="st0" cx="556.41" cy="552.91" rx="336.5" ry="336.5"/>
	<path class="st1" d="M500.96,603.99L370.77,734.17c-114.19-114.16-95.75-304.85,39.5-394.78
		C394.63,428.06,425.74,528.77,500.96,603.99z"/>
	<polygon class="st1" points="509.58,160.95 528.97,196.41 564.43,215.81 528.97,235.2 509.58,270.66 490.18,235.2 454.72,215.81 
		490.18,196.41 	"/>
	<polygon class="st1" points="143.45,537.89 162.23,572.23 196.56,591.01 162.23,609.78 143.45,644.12 124.67,609.78 90.33,591.01 
		124.67,572.23 	"/>
	<polygon class="st1" points="765.55,573.04 776.14,592.4 795.5,603 776.14,613.58 765.55,632.95 754.96,613.58 735.59,603 
		754.96,592.4 	"/>
	<polygon class="st1" points="586.95,464.83 596.25,481.83 613.25,491.12 596.25,500.42 586.95,517.42 577.66,500.42 560.66,491.12 
		577.66,481.83 	"/>
	<polygon class="st1" points="737.45,345.58 748.04,364.94 767.4,375.54 748.04,386.12 737.45,405.49 726.86,386.12 707.5,375.54 
		726.86,364.94 	"/>
	<polygon class="st2" points="330.25,854.64 341.65,875.56 362.48,887 341.65,898.44 330.25,919.35 318.85,898.44 298.01,887 
		318.85,875.56 	"/>
	<polygon class="st2" points="948.65,634.61 963.39,661.66 990.33,676.45 963.39,691.24 948.65,718.29 933.92,691.24 906.97,676.45 
		933.92,661.66 	"/>
	<path class="st2" d="M765.56,694.67c-89.8,135.02-280.42,153.89-394.78,39.5l130.18-130.18
		C577.79,680.85,679.08,709.96,765.56,694.67z"/>
</g>
</svg>
