<?xml version="1.0" encoding="utf-8"?>
<!-- Generator: Adobe Illustrator 24.0.1, SVG Export Plug-In . SVG Version: 6.00 Build 0)  -->
<svg version="1.1" id="Слой_1" xmlns="http://www.w3.org/2000/svg" xmlns:xlink="http://www.w3.org/1999/xlink" x="0px" y="0px"
	 viewBox="0 0 1080 1080" style="enable-background:new 0 0 1080 1080;" xml:space="preserve">
<style type="text/css">
	.st0{fill:#71647E;}
	.st1{clip-path:url(#SVGID_2_);}
	.st2{fill:#542C4A;}
	.st3{opacity:0.8;fill:url(#SVGID_3_);enable-background:new    ;}
	.st4{opacity:0.5;fill:#51385B;enable-background:new    ;}
	.st5{opacity:0.8;fill:url(#SVGID_4_);enable-background:new    ;}
	.st6{opacity:0.8;fill:url(#SVGID_5_);enable-background:new    ;}
	.st7{opacity:0.8;fill:url(#SVGID_6_);enable-background:new    ;}
	.st8{opacity:0.8;fill:url(#SVGID_7_);enable-background:new    ;}
	.st9{opacity:0.8;fill:url(#SVGID_8_);enable-background:new    ;}
	.st10{opacity:0.8;fill:url(#SVGID_9_);enable-background:new    ;}
	.st11{fill:url(#SVGID_10_);}
	.st12{clip-path:url(#SVGID_12_);}
	.st13{opacity:0.8;fill:url(#SVGID_13_);enable-background:new    ;}
	.st14{opacity:0.8;fill:url(#SVGID_14_);enable-background:new    ;}
	.st15{opacity:0.8;fill:url(#SVGID_15_);enable-background:new    ;}
	.st16{opacity:0.8;fill:url(#SVGID_16_);enable-background:new    ;}
	.st17{opacity:0.8;fill:url(#SVGID_17_);enable-background:new    ;}
	.st18{opacity:0.8;fill:url(#SVGID_18_);enable-background:new    ;}
	.st19{fill:#51385B;}
	.st20{fill:url(#SVGID_19_);}
	.st21{opacity:0.5;fill:#542C4A;enable-background:new    ;}
	.st22{fill:url(#SVGID_20_);}
	.st23{fill:url(#SVGID_21_);}
	.st24{opacity:0.5;fill:url(#SVGID_22_);enable-background:new    ;}
	.st25{fill:url(#SVGID_23_);}
	.st26{opacity:0.5;fill:url(#SVGID_24_);enable-background:new    ;}
	.st27{fill:url(#SVGID_25_);}
	.st28{opacity:0.5;fill:url(#SVGID_26_);enable-background:new    ;}
	.st29{fill:url(#SVGID_27_);}
	.st30{opacity:0.5;fill:url(#SVGID_28_);enable-background:new    ;}
	.st31{fill:url(#SVGID_29_);}
	.st32{opacity:0.5;fill:url(#SVGID_30_);enable-background:new    ;}
	.st33{fill:url(#SVGID_31_);}
	.st34{opacity:0.5;fill:url(#SVGID_32_);enable-background:new    ;}
	.st35{opacity:0.5;fill:url(#SVGID_33_);enable-background:new    ;}
	.st36{opacity:0.7;fill:#451F47;enable-background:new    ;}
	.st37{opacity:0.5;fill:url(#SVGID_34_);enable-background:new    ;}
	.st38{opacity:0.7;fill:#51385B;enable-background:new    ;}
	.st39{opacity:0.8;fill:url(#SVGID_35_);enable-background:new    ;}
	.st40{fill:url(#SVGID_36_);}
	.st41{opacity:0.5;fill:url(#SVGID_37_);enable-background:new    ;}
	.st42{fill:#FFFFFF;}
	.st43{opacity:0.5;fill:url(#SVGID_38_);enable-background:new    ;}
	.st44{opacity:0.5;fill:url(#SVGID_39_);enable-background:new    ;}
	.st45{fill:url(#SVGID_40_);}
	.st46{fill:url(#SVGID_41_);}
	.st47{opacity:0.5;fill:url(#SVGID_42_);enable-background:new    ;}
	.st48{opacity:0.5;fill:url(#SVGID_43_);enable-background:new    ;}
	.st49{opacity:0.5;fill:#451F47;enable-background:new    ;}
	.st50{opacity:0.5;fill:url(#SVGID_44_);enable-background:new    ;}
	.st51{opacity:0.5;fill:url(#SVGID_45_);enable-background:new    ;}
	.st52{opacity:0.5;fill:url(#SVGID_46_);enable-background:new    ;}
	.st53{opacity:0.3;fill:#51385B;enable-background:new    ;}
	.st54{opacity:0.5;fill:url(#SVGID_47_);enable-background:new    ;}
	.st55{opacity:0.5;fill:url(#SVGID_48_);enable-background:new    ;}
	.st56{opacity:0.5;fill:url(#SVGID_49_);enable-background:new    ;}
</style>
<g>
	<g>
		<g>
			
				<ellipse id="SVGID_1719_" transform="matrix(0.7071 -0.7071 0.7071 0.7071 -223.4252 539.9798)" class="st0" cx="540.1" cy="539.7" rx="283.5" ry="283.5"/>
		</g>
		<g>
			<defs>
				
					<ellipse id="SVGID_1_" transform="matrix(0.7071 -0.7071 0.7071 0.7071 -223.4252 539.9798)" cx="540.1" cy="539.7" rx="283.5" ry="283.5"/>
			</defs>
			<clipPath id="SVGID_2_">
				<use xlink:href="#SVGID_1_"  style="overflow:visible;"/>
			</clipPath>
			<g class="st1">
				<path class="st2" d="M304.4,566.8c2.1,10.4,168.4,14.3,168.4,14.3v10.7c0,0-154.6-20.5-167.1-17.4
					c-12.5,3.1-0.3,104.6-0.3,104.6l-8.3-5.5c0,0,1.7-75.7,1.3-113.7c0,0,0.3-25-2-25c-4.1,0-88.6-12-88.6-12l0.9-5.2
					c0,0,63.1,16.5,87.3,11.1c7.7-1.7,11.5-96.5,11.5-96.5l4.5,4.8C311.9,436.9,299.8,544.3,304.4,566.8z"/>
				<path class="st2" d="M436.3,691.1c-10.4,2.1-16.1,89-16.1,89l-7.1-1.3c0,0,18.7-73.9,15.7-86.5c-3.1-12.5-142-5-142-5l18.7-8.5
					c0,0,99.9,6.6,138,6.1c0,0,25,0.3,25-2c0-4.1,4.4-102,4.4-102l5.9,0.7c0,0-9.6,76.8-4.2,100.9c1.7,7.7,264.2,1.3,264.2,1.3
					l4.5,10.8C743.2,694.7,458.7,686.5,436.3,691.1z"/>
				<path class="st2" d="M500.9,440.2c-9.9,10.9-22.3,141.6-22.3,141.6l-5.9-0.7c0,0,22.4-118.6,16.4-138.1
					c-6-19.5-178.5,5.5-178.5,5.5l1.2-11.5c0,0,139.6-2.6,199.7-7c0,0,39.5-2,39.3-5.6c-0.4-6.4,10.4-141.1,10.4-141.1l8.3,1
					c0,0-19.9,101.4-9.1,139c3.4,11.9,188,14.3,188,14.3l-1.9,9.5C746.5,447,514.9,424.9,500.9,440.2z"/>
				<path class="st2" d="M743.7,521.8c-2.1-10.4-257.9-9.8-257.9-9.8l-0.6-6c0,0,245.4,9.1,257.9,6s-0.2-98.8-0.2-98.8l8.3,5.5
					c0,0-1.7,75.6-1.3,113.7c0,0-0.3,25,2,25c4.1,0,88.6,12,88.6,12l-0.9,5.2c0,0-63.1-16.5-87.3-11.1c-7.7,1.7-11.5,96.5-11.5,96.5
					l-4.5-4.8C736.3,655.2,748.3,544.2,743.7,521.8z"/>
				
					<linearGradient id="SVGID_3_" gradientUnits="userSpaceOnUse" x1="-9400.5791" y1="-6155.7188" x2="-9499.5156" y2="-5286.7295" gradientTransform="matrix(-1 0 0 1 -8674.2666 6349.7173)">
					<stop  offset="0" style="stop-color:#A3849F"/>
					<stop  offset="1" style="stop-color:#9A95A5"/>
				</linearGradient>
				<path class="st3" d="M796.5,738.6c7.8-23.4,21.4-146.3,19.4-154.2c-2.1-7.8-59.2-27.6-62-14.4s-16.4,155.8-10.6,164.9
					C749.1,744,792.3,751.1,796.5,738.6z"/>
				<path class="st4" d="M741.9,530.4c-7.8-13.8-79.5-19.9-81.9-11.5c-2.3,8.3-13.7,114.2-5.2,121.6s73.7,27.2,79,7.4
					S745.8,537.4,741.9,530.4z"/>
				<path class="st4" d="M753.9,552.3c8.1,12.1,169.6,27.6,177.8,19s14.8-103.9-8.2-112.1c-23.1-8.2-170.1-15.3-169.6,0
					C754.4,474.4,750,546.6,753.9,552.3z"/>
				
					<linearGradient id="SVGID_4_" gradientUnits="userSpaceOnUse" x1="-9265.249" y1="-6140.3105" x2="-9364.1855" y2="-5271.3247" gradientTransform="matrix(-1 0 0 1 -8674.2666 6349.7173)">
					<stop  offset="0" style="stop-color:#A3849F"/>
					<stop  offset="1" style="stop-color:#9A95A5"/>
				</linearGradient>
				<path class="st5" d="M735.9,509.8c12.4,1.5,9.5-48.6,6.2-59c-2.5-7.8-226.4-9.5-234,0s-17.1,52,0.3,52
					C553.7,502.8,704.6,506.2,735.9,509.8z"/>
				<path class="st4" d="M741.9,432c4.9-11.3-4-144.1-22.9-148.8c-19-4.7-146.1-1.4-146.5,6.9c-0.3,8.2-13.4,127.2-4.8,131.6
					C576.3,426.1,739.3,437.9,741.9,432z"/>
				
					<linearGradient id="SVGID_5_" gradientUnits="userSpaceOnUse" x1="-9107.3418" y1="-6122.332" x2="-9206.2783" y2="-5253.3438" gradientTransform="matrix(-1 0 0 1 -8674.2666 6349.7173)">
					<stop  offset="0" style="stop-color:#A3849F"/>
					<stop  offset="1" style="stop-color:#9A95A5"/>
				</linearGradient>
				<path class="st6" d="M544.3,418.2c2.5-9.9,23.3-128.5,6.9-131.4s-204.7-9.9-207.7,30.1c-3,40-14.7,113.6,6.6,115.1
					C371.5,433.6,541.8,428.2,544.3,418.2z"/>
				<path class="st4" d="M483.2,450.1c-5.8-8-169.4,0.8-170.3,9s-9.6,94.7-1.7,102.2c7.9,7.5,146.8,26.3,154.7,13.4
					C473.7,561.8,491,460.9,483.2,450.1z"/>
				
					<linearGradient id="SVGID_6_" gradientUnits="userSpaceOnUse" x1="-8897.1709" y1="-6098.4028" x2="-8996.1064" y2="-5229.416" gradientTransform="matrix(-1 0 0 1 -8674.2666 6349.7173)">
					<stop  offset="0" style="stop-color:#A3849F"/>
					<stop  offset="1" style="stop-color:#9A95A5"/>
				</linearGradient>
				<path class="st7" d="M295.5,541.5c0.2-4.5-65.5-7.3-68.6,4.8S239.5,783.3,247,790c7.4,6.7,50.3,5.1,53.6-4.8
					C303.9,775.4,288.7,669.7,295.5,541.5z"/>
				<path class="st4" d="M294.4,523.4c9.8-16.6,12.4-95.6,0-101.4s-88.3-0.4-86.6,20.6c1.7,21,2.5,64.5,13.3,70.4
					C231.7,518.9,287.6,534.9,294.4,523.4z"/>
				<path class="st2" d="M631,513c10.5,44.6,8.3,172.8,8.3,172.8l6-0.1L641.5,513L631,513L631,513z"/>
				<path class="st4" d="M495.3,518.1c-11.6,2.7-18.8,156-6.1,159s137.9,9.8,141.8,1.5s9.4-150-13.1-158
					C595.3,512.7,504.5,516,495.3,518.1z"/>
				
					<linearGradient id="SVGID_7_" gradientUnits="userSpaceOnUse" x1="304.26" y1="448.9397" x2="462.5895" y2="448.9397" gradientTransform="matrix(1 0 0 -1 1.532924e-05 1080)">
					<stop  offset="0" style="stop-color:#A3849F"/>
					<stop  offset="1" style="stop-color:#9A95A5"/>
				</linearGradient>
				<path class="st8" d="M307.9,585.8c-9.2,10.4,0.3,81.8,13.9,85.7s130.6,11.3,135.6,4.6c5-6.8,8.8-67.2,0-74.4
					C448.6,594.5,315.7,577.1,307.9,585.8z"/>
				
					<linearGradient id="SVGID_8_" gradientUnits="userSpaceOnUse" x1="433.0528" y1="336.997" x2="734.8598" y2="336.997" gradientTransform="matrix(1 0 0 -1 1.532924e-05 1080)">
					<stop  offset="0" style="stop-color:#A3849F"/>
					<stop  offset="1" style="stop-color:#9A95A5"/>
				</linearGradient>
				<path class="st9" d="M442,696.2c-9.8,13.7-11.4,72.9-5.4,83.9s281.5,20.2,289,4.4c7.5-15.8,16.5-76.8,0-80.1
					C709.1,701.1,448.6,686.9,442,696.2z"/>
				
					<linearGradient id="SVGID_9_" gradientUnits="userSpaceOnUse" x1="302.3436" y1="343.0048" x2="414.9373" y2="343.0048" gradientTransform="matrix(1 0 0 -1 1.532924e-05 1080)">
					<stop  offset="0" style="stop-color:#A3849F"/>
					<stop  offset="1" style="stop-color:#9A95A5"/>
				</linearGradient>
				<path class="st10" d="M409.5,700.4c-10.6-6.2-101-11.3-104.5-0.4s-6,60.6,8.9,69.1s82.9,16,89.8,7.5
					C410.7,768,421.6,707.5,409.5,700.4z"/>
			</g>
		</g>
	</g>
	
		<linearGradient id="SVGID_10_" gradientUnits="userSpaceOnUse" x1="536.27" y1="419.9021" x2="536.27" y2="695.6734" gradientTransform="matrix(1 0 0 -1 0 1080)">
		<stop  offset="0" style="stop-color:#3E2B52"/>
		<stop  offset="1" style="stop-color:#422457"/>
	</linearGradient>
	<polygon class="st11" points="483.5,466.8 536.3,360 589,466.8 628.8,472.6 645.6,475 706.9,483.9 621.6,567.1 641.7,684.5 
		536.3,629 430.8,684.5 451,567.1 365.7,483.9 	"/>
	<g>
		<g>
			<path id="SVGID_1729_" class="st0" d="M914.8,684.8c3.3-7.8-42.1-92.1-60.8-126.4c0-0.5,1.3-18.9,0-37.8
				c18.7-34.3,61-117.7,60.8-126.4c0-0.8,0.7-14.4,0-15.9c-3.2-7.6-99.2-34.7-137.4-45.3c-10.9-12.5-22.8-24.1-35.5-34.8
				c-9.6-35-38.4-138.1-46.3-141.4c-9.5-4-133.1,64.4-140.4,68.5c-5-0.2-10-0.4-15.1-0.4s-10.1,0.1-15.1,0.4
				c-7.3-4-130.9-72.5-140.4-68.5c-7.9,3.3-36.8,106.4-46.3,141.4c-12.7,10.7-24.6,22.3-35.5,34.8c-38.2,10.5-134.2,37.6-137.4,45.3
				c-0.7,1.6,0,15.1,0,15.9c-0.2,11.3,42.1,92.1,60.8,126.4c-2,18.8,0,37.3,0,37.8c-18.7,34.3-64.1,118.6-60.8,126.4
				c0.3,0.7-0.7,14.4,0,15.9c3.2,7.6,99.2,34.7,137.4,45.2c10.9,12.5,22.8,24.2,35.5,34.8c9.6,35,38.4,138.1,46.3,141.4
				c9.5,4,133.1-64.5,140.4-68.5c5,0.2,10,0.4,15.1,0.4s10.1-0.1,15.1-0.4c7.3,4,130.9,72.5,140.3,68.5
				c7.9-3.3,36.8-106.4,46.3-141.4c12.7-10.7,24.6-22.3,35.5-34.8c38.2-10.5,134.2-37.6,137.4-45.3
				C915.5,699.2,914.5,685.5,914.8,684.8z M777.2,539.5c0,130.9-106.2,237-237.1,237c-130.9,0-237-106.1-237.1-237
				c0-130.9,106.2-237,237.1-237C671,302.5,777.2,408.6,777.2,539.5z"/>
		</g>
		<g>
			<defs>
				<path id="SVGID_11_" d="M914.8,684.8c3.3-7.8-42.1-92.1-60.8-126.4c0-0.5,1.3-18.9,0-37.8c18.7-34.3,61-117.7,60.8-126.4
					c0-0.8,0.7-14.4,0-15.9c-3.2-7.6-99.2-34.7-137.4-45.3c-10.9-12.5-22.8-24.1-35.5-34.8c-9.6-35-38.4-138.1-46.3-141.4
					c-9.5-4-133.1,64.4-140.4,68.5c-5-0.2-10-0.4-15.1-0.4s-10.1,0.1-15.1,0.4c-7.3-4-130.9-72.5-140.4-68.5
					c-7.9,3.3-36.8,106.4-46.3,141.4c-12.7,10.7-24.6,22.3-35.5,34.8c-38.2,10.5-134.2,37.6-137.4,45.3c-0.7,1.6,0,15.1,0,15.9
					c-0.2,11.3,42.1,92.1,60.8,126.4c-2,18.8,0,37.3,0,37.8c-18.7,34.3-64.1,118.6-60.8,126.4c0.3,0.7-0.7,14.4,0,15.9
					c3.2,7.6,99.2,34.7,137.4,45.2c10.9,12.5,22.8,24.2,35.5,34.8c9.6,35,38.4,138.1,46.3,141.4c9.5,4,133.1-64.5,140.4-68.5
					c5,0.2,10,0.4,15.1,0.4s10.1-0.1,15.1-0.4c7.3,4,130.9,72.5,140.3,68.5c7.9-3.3,36.8-106.4,46.3-141.4
					c12.7-10.7,24.6-22.3,35.5-34.8c38.2-10.5,134.2-37.6,137.4-45.3C915.5,699.2,914.5,685.5,914.8,684.8z M777.2,539.5
					c0,130.9-106.2,237-237.1,237c-130.9,0-237-106.1-237.1-237c0-130.9,106.2-237,237.1-237C671,302.5,777.2,408.6,777.2,539.5z"/>
			</defs>
			<clipPath id="SVGID_12_">
				<use xlink:href="#SVGID_11_"  style="overflow:visible;"/>
			</clipPath>
			<g class="st12">
				<path class="st2" d="M829.7,511.1C834.2,526.7,968,525,968,525l-1.1,11c0,0-115.5-19.7-134.3-13.5s12.3,160.2,12.3,160.2
					l-13.4-7.4c0,0-6.6-116.1-11.8-174.3c0,0-2.7-38.4-6.1-38.1c-6.2,0.5-137.1-7.7-137.1-7.7l0.8-8c0,0,98.7,17.6,135,6.5
					c11.5-3.5,5.9-149.2,5.9-149.2l7.4,6.8C825.5,311.2,820,477.3,829.7,511.1z"/>
				<path class="st2" d="M612.6,240.9c15.4-3.1,24-132.4,24-132.4l10.5,1.9c0,0-27.8,109.9-23.3,128.6s155.5,0.4,155.5,0.4
					l-8.2,12.4c0,0-112.5-2.5-169.1-1.9c0,0-37.2-0.4-37.2,3c0,6.1-17.9,131.7-17.9,131.7l-7.7-1.4c0,0,24.5-93.9,16.6-129.8
					c-2.5-11.4-143.6-17.1-143.6-17.1l7.1-6.6C419.4,229.7,579.3,247.8,612.6,240.9z"/>
				<path class="st2" d="M245.7,461.1c-2.8-13.8-118.4-21.4-118.4-21.4l1.7-9.4c0,0,98.3,24.9,114.9,20.8s0.4-139,0.4-139l11.1,7.3
					c0,0-2.3,100.6-1.7,151.2c0,0-0.3,33.3,2.6,33.3c5.4,0,117.8,16,117.8,16l-1.2,6.9c0,0-83.9-21.9-116-14.8
					c-10.2,2.3-15.3,128.3-15.3,128.3l-5.9-6.4C235.7,633.8,251.8,490.9,245.7,461.1z"/>
				<path class="st2" d="M752.5,690.6c-2.1-10.4-89-16.1-89-16.1l1.3-7.1c0,0,73.9,18.7,86.5,15.7c12.5-3.1,0.3-104.6,0.3-104.6
					l8.3,5.5c0,0-1.7,75.7-1.3,113.7c0,0-0.3,25,2,25c4.1,0,88.6,12,88.6,12l-0.9,5.2c0,0-63.1-16.5-87.3-11.1
					c-7.7,1.7-11.5,96.5-11.5,96.5l-4.5-4.8C745,820.5,757.1,713,752.5,690.6z"/>
				<path class="st2" d="M556,817.2c16.2-4.3,16.8-142.2,16.8-142.2l11.3,1.3c0,0-22.4,118.6-16.3,138.1c6,19.5,165.2-9.7,165.2-9.7
					l-7.9,13.7c0,0-119.7,4.6-179.8,9c0,0-39.5,2-39.3,5.6c0.4,6.4-10.4,141.1-10.4,141.1l-8.3-1c0,0,19.9-101.4,9.1-139
					c-3.4-11.9-153.6-8.8-153.6-8.8l7.2-7.5C350,817.9,521,826.6,556,817.2z"/>
				<path class="st2" d="M313.2,735.6c2.1,10.4,116.7,9.8,116.7,9.8l5,4.6c0,0-108.5-7.6-121.1-4.6c-12.5,3.1,0.2,98.8,0.2,98.8
					l-8.3-5.5c0,0,1.7-75.7,1.3-113.7c0,0,0.3-25-2-25c-4.1,0-88.6-12-88.6-12l0.9-5.2c0,0,63.1,16.5,87.3,11.1
					c7.7-1.7,11.5-96.5,11.5-96.5l4.5,4.8C320.6,602.2,308.6,713.2,313.2,735.6z"/>
				<path class="st2" d="M367.1,299.5c-4-9.8-90.5,0.5-90.5,0.5l0-7.2c0,0,76.1,4.8,87.9-0.5c11.8-5.3-19-102.8-19-102.8l9.2,3.9
					c0,0,12.2,74.7,19.7,112c0,0,4.4,24.6,6.5,24.2c4-0.8,89.3-4.5,89.3-4.5l0,5.3c0,0-65.1-4.6-87.8,5.1c-7.2,3.1,6.5,97,6.5,97
					l-5.3-3.9C383.6,428.6,375.8,320.7,367.1,299.5z"/>
				<path class="st4" d="M575,258.3c-5.7,7.5-23.1,160.1-15.7,174.2s227.6,25.6,242.8,14.6c15.2-11.1,21-164.1,0-176.4
					C781.1,258.3,582.4,248.4,575,258.3z"/>
				
					<linearGradient id="SVGID_13_" gradientUnits="userSpaceOnUse" x1="373.5393" y1="794.6136" x2="552.845" y2="794.6136" gradientTransform="matrix(1 0 0 -1 0 1080)">
					<stop  offset="0" style="stop-color:#A3849F"/>
					<stop  offset="1" style="stop-color:#9A95A5"/>
				</linearGradient>
				<path class="st13" d="M540.1,254.2c-51.4-6.6-153.9-18.2-160.5,3.2c-6.6,21.4-11.1,59.4,5,63.9c16.1,4.5,154.4,7.8,159.5-2.1
					C549,309.4,563,257.2,540.1,254.2z"/>
				<path class="st4" d="M612.4,233.5c-1.9,9-139.3,1.6-180.5-8.5c-10.7-2.6-7.4-80.5,6.2-85.9s189.3-7.4,189.5,2.9
					C627.7,152.3,614.8,222.4,612.4,233.5z"/>
				
					<linearGradient id="SVGID_14_" gradientUnits="userSpaceOnUse" x1="788.6331" y1="68.7603" x2="689.6966" y2="937.748" gradientTransform="matrix(1 0 0 -1 0 1080)">
					<stop  offset="0" style="stop-color:#A3849F"/>
					<stop  offset="1" style="stop-color:#9A95A5"/>
				</linearGradient>
				<path class="st14" d="M647.5,141.6c-16.5,38.1-24.3,96.4-17.3,97.6c7,1.2,108,7.6,128.6-5c20.6-12.6,4.5-84.4-11.5-88.1
					C731.2,142.4,651.7,131.9,647.5,141.6z"/>
				<path class="st4" d="M356.9,302.5c-28.8-11.9-89.9,0.6-93.6,12.6c-3.7,12-7.8,178.1-3.3,182.2c4.5,4.1,106.6,23.1,114.1,12
					C381.6,498.2,380.4,312.2,356.9,302.5z"/>
				
					<linearGradient id="SVGID_15_" gradientUnits="userSpaceOnUse" x1="330.5875" y1="16.6093" x2="231.6508" y2="885.5986" gradientTransform="matrix(1 0 0 -1 0 1080)">
					<stop  offset="0" style="stop-color:#A3849F"/>
					<stop  offset="1" style="stop-color:#9A95A5"/>
				</linearGradient>
				<path class="st15" d="M260.4,518.8c-7.8,23.4-21.4,146.3-19.4,154.2c2.1,7.8,59.2,27.6,62,14.4c2.8-13.2,16.4-155.8,10.6-164.9
					C307.8,513.4,264.6,506.3,260.4,518.8z"/>
				<path class="st4" d="M237.8,465.2c-7.6-10.4-69.7-22.4-78.8-13.3s-9.9,175.7,4.1,182.7c14,7,70.9,3.4,71.9-15.4
					C236.1,600.4,248.5,479.8,237.8,465.2z"/>
				<path class="st4" d="M315,727c7.8,13.8,79.5,19.9,81.9,11.5s13.7-114.2,5.2-121.6s-73.7-27.2-79-7.4
					C317.8,629.2,311.1,720,315,727z"/>
				<path class="st4" d="M303,705.1c-8.1-12.1-169.6-27.6-177.8-19s-14.8,103.9,8.2,112.1c23.1,8.2,170.1,15.3,169.6,0
					C302.5,783,306.9,710.8,303,705.1z"/>
				
					<linearGradient id="SVGID_16_" gradientUnits="userSpaceOnUse" x1="465.9174" y1="32.0174" x2="366.9813" y2="901.0035" gradientTransform="matrix(1 0 0 -1 0 1080)">
					<stop  offset="0" style="stop-color:#A3849F"/>
					<stop  offset="1" style="stop-color:#9A95A5"/>
				</linearGradient>
				<path class="st16" d="M321,747.6c-12.4-1.5-9.5,48.6-6.2,59c2.5,7.8,226.4,9.5,234,0c7.6-9.5,17.1-52-0.3-52
					C503.2,754.6,352.3,751.2,321,747.6z"/>
				<path class="st4" d="M315,825.4c-4.9,11.3,4,144.1,22.9,148.8c19,4.7,146.1,1.4,146.5-6.8c0.3-8.2,13.4-127.2,4.8-131.6
					C480.6,831.3,317.5,819.5,315,825.4z"/>
				
					<linearGradient id="SVGID_17_" gradientUnits="userSpaceOnUse" x1="623.8251" y1="49.9961" x2="524.8885" y2="918.9843" gradientTransform="matrix(1 0 0 -1 0 1080)">
					<stop  offset="0" style="stop-color:#A3849F"/>
					<stop  offset="1" style="stop-color:#9A95A5"/>
				</linearGradient>
				<path class="st17" d="M512.6,839.2c-2.5,9.9-23.4,128.5-6.9,131.4c16.5,2.9,204.7,9.9,207.7-30.1c3-40,14.7-113.6-6.6-115.1
					S515.1,829.1,512.6,839.2z"/>
				<path class="st4" d="M573.7,807.3c5.8,8,169.4-0.8,170.3-9s9.6-94.7,1.7-102.2c-7.9-7.5-146.8-26.3-154.7-13.4
					C583.2,695.6,565.9,796.5,573.7,807.3z"/>
				
					<linearGradient id="SVGID_18_" gradientUnits="userSpaceOnUse" x1="833.9957" y1="73.9246" x2="735.0593" y2="942.9122" gradientTransform="matrix(1 0 0 -1 0 1080)">
					<stop  offset="0" style="stop-color:#A3849F"/>
					<stop  offset="1" style="stop-color:#9A95A5"/>
				</linearGradient>
				<path class="st18" d="M761.4,715.8c-0.2,4.5,65.5,7.3,68.6-4.8s-12.7-236.9-20.1-243.7s-50.3-5.1-53.6,4.8
					C753,482,768.2,587.7,761.4,715.8z"/>
				<path class="st4" d="M762.5,734c-9.8,16.6-12.4,95.6,0,101.4c12.4,5.8,88.3,0.4,86.6-20.6c-1.7-21-2.5-64.5-13.3-70.4
					C825.2,738.5,769.3,722.5,762.5,734z"/>
				<path class="st4" d="M833.7,528.3c-2.3,14,8.5,139,13.4,146.7c4.8,7.7,106.4,25.7,113-11c6.6-36.7,13.6-117.5-4.5-122.5
					C937.3,536.5,835.3,518.4,833.7,528.3z"/>
				<path class="st4" d="M833.7,501.5c6,8.8,105.7,17.7,113.5,9.9c7.8-7.8,4.1-160.8-7.8-166.9s-103-15.6-108.9-5.4
					S826.9,491.6,833.7,501.5z"/>
				<path class="st2" d="M798.9,526.6c0,0-12.4,13.4-2.5,49.4C796.3,575.9,832.6,556,798.9,526.6z"/>
				<path class="st2" d="M290.5,608c0,0-15.3,33.4,14.4,39.5C304.9,647.5,304.8,618.8,290.5,608z"/>
				<path class="st2" d="M484.4,237.2c0,0,12,32.4,49.6,3C534,240.3,495.3,232.7,484.4,237.2z"/>
			</g>
		</g>
	</g>
	<g>
		<path class="st19" d="M485.8,849.6c1.1,0.2,2.2,0.4,3.4,0.6c-9.5,6.8-19.4,12.5-29.1,17.3c0,0-0.1,0-0.1,0.1
			c-5.5,2.7-11,5.2-16.2,7.3c-0.2,0.1-0.3,0.1-0.5,0.2c-25.1,10.3-45.4,14.3-46.4,14.5c0,0,0,0,0,0c0,0,0,0,0-0.1
			c-13-25.2-21.1-50.4-26.1-70.1c0-0.1,0-0.2-0.1-0.2c-0.1-0.3-0.1-0.5-0.2-0.8c-1.5-5.9-2.7-11.3-3.6-16c0.8,0.5,1.7,1.1,2.5,1.6
			c1.4,0.9,2.7,1.8,4.1,2.6c1.1,0.7,2.3,1.4,3.4,2.1c31.9,19.4,67.4,33.2,105.4,40.3L485.8,849.6z"/>
		
			<linearGradient id="SVGID_19_" gradientUnits="userSpaceOnUse" x1="428.905" y1="195.6298" x2="428.905" y2="316.762" gradientTransform="matrix(1 0 0 -1 0 1080)">
			<stop  offset="0" style="stop-color:#A3849F"/>
			<stop  offset="1" style="stop-color:#9A95A5"/>
		</linearGradient>
		<path class="st20" d="M484.4,849.4c-16.8,11-49,29.2-84.9,34.6c0,0-15-23.6-26-77.3c1.1,0.7,2.3,1.4,3.4,2.1
			c31.9,19.4,67.4,33.2,105.4,40.3L484.4,849.4z"/>
		<path class="st21" d="M485.8,849.6c-5.2,4.6-14.3,11.9-25.7,17.9c0,0-0.1,0-0.1,0.1c-4.6,2.4-10.1,4.9-16.2,7.3
			c-0.2,0.1-0.3,0.1-0.5,0.2c-13.3,5.3-29.6,10.3-46.4,14.5c0,0,0,0,0,0c0,0,0,0,0-0.1c-0.9-1.7-15.9-28.8-26.1-70.1
			c0-0.1,0-0.2-0.1-0.2c-0.1-0.3-0.1-0.5-0.2-0.8c-1-4.4-1.2-9.6-1.1-14.4c1.4,0.9,2.7,1.8,4.1,2.6c1.1,0.7,2.3,1.4,3.4,2.1
			c6,15.5,15.8,37.3,28.2,51.8c0,0,35.9,6.1,77.2-11.5L485.8,849.6z"/>
	</g>
	<g>
		<path class="st19" d="M713.4,802.3c-1,4.7-2.1,10.1-3.6,16c-0.1,0.3-0.1,0.5-0.2,0.8c0,0.1,0,0.2-0.1,0.2
			c-5,19.7-13.1,44.9-26.1,70.1c0,0,0,0.1,0,0.1c0,0,0,0,0,0c-1.1-0.2-21.3-4.1-46.5-14.5c-0.1,0-0.3-0.1-0.4-0.2
			c-5.3-2.2-10.8-4.7-16.4-7.4c-9.7-4.8-19.6-10.5-29-17.3c1.1-0.2,2.3-0.4,3.4-0.6l3.5-0.6c38-7,73.5-20.9,105.4-40.3
			c1.2-0.7,2.3-1.4,3.4-2.1c1.4-0.9,2.8-1.7,4.1-2.6C711.7,803.4,712.6,802.9,713.4,802.3z"/>
		
			<linearGradient id="SVGID_20_" gradientUnits="userSpaceOnUse" x1="651.3" y1="195.6298" x2="651.3" y2="316.762" gradientTransform="matrix(1 0 0 -1 0 1080)">
			<stop  offset="0" style="stop-color:#A3849F"/>
			<stop  offset="1" style="stop-color:#9A95A5"/>
		</linearGradient>
		<path class="st22" d="M706.8,806.6c-11,53.8-26,77.3-26,77.3c-36-5.3-68.2-23.6-84.9-34.6c0,0,0,0,0,0l2.1-0.4
			c38-7,73.5-20.9,105.4-40.3C704.5,808,705.6,807.3,706.8,806.6z"/>
		<path class="st21" d="M709.8,818.4c-0.1,0.3-0.1,0.5-0.2,0.8c0,0.1,0,0.2-0.1,0.2c-10.3,41.3-25.2,68.5-26.1,70.1c0,0,0,0.1,0,0.1
			c0,0,0,0,0,0c-16.8-4.1-33.1-9.2-46.5-14.5c-0.1,0-0.3-0.1-0.4-0.2c-6.1-2.4-11.6-4.9-16.2-7.3c-0.1,0-0.1-0.1-0.2-0.1
			c-11.3-6-20.4-13.3-25.7-17.9l3.5-0.6c41.3,17.6,77.2,11.5,77.2,11.5c12.5-14.5,22.3-36.3,28.2-51.8c1.2-0.7,2.3-1.4,3.4-2.1
			c1.4-0.9,2.8-1.7,4.1-2.6C711,808.8,710.7,814,709.8,818.4z"/>
	</g>
	<g>
		<path class="st19" d="M485.8,229.8c1.1-0.2,2.2-0.4,3.4-0.6c-9.5-6.8-19.4-12.5-29.1-17.3c0,0-0.1-0.1-0.1-0.1
			c-5.5-2.7-11-5.2-16.2-7.4c-0.2-0.1-0.3-0.1-0.5-0.2c-25.1-10.3-45.4-14.3-46.4-14.4c0,0,0,0,0,0c0,0,0,0,0,0.1
			c-13,25.2-21.1,50.4-26.1,70.1c0,0.1,0,0.2-0.1,0.2c-0.1,0.3-0.1,0.5-0.2,0.8c-1.5,5.9-2.7,11.3-3.6,16c0.8-0.5,1.7-1.1,2.5-1.6
			c1.4-0.9,2.7-1.8,4.1-2.6c1.1-0.7,2.3-1.4,3.4-2.1c31.9-19.4,67.4-33.2,105.4-40.3L485.8,229.8z"/>
		
			<linearGradient id="SVGID_21_" gradientUnits="userSpaceOnUse" x1="373.43" y1="845.815" x2="484.38" y2="845.815" gradientTransform="matrix(1 0 0 -1 0 1080)">
			<stop  offset="0" style="stop-color:#A3849F"/>
			<stop  offset="1" style="stop-color:#9A95A5"/>
		</linearGradient>
		<path class="st23" d="M484.4,230.1c-16.8-11-49-29.2-84.9-34.6c0,0-15,23.6-26,77.4c1.1-0.7,2.3-1.4,3.4-2.1
			c31.9-19.4,67.4-33.2,105.4-40.3L484.4,230.1z"/>
		<path class="st21" d="M485.8,229.8c-5.2-4.6-14.3-11.9-25.7-17.9c0,0-0.1-0.1-0.1-0.1c-4.6-2.4-10.1-4.9-16.2-7.4
			c-0.2-0.1-0.3-0.1-0.5-0.2c-13.3-5.3-29.6-10.3-46.4-14.4c0,0,0,0,0,0c0,0,0,0,0,0.1c-0.9,1.7-15.9,28.8-26.1,70.1
			c0,0.1,0,0.2-0.1,0.2c-0.1,0.3-0.1,0.5-0.2,0.8c-1,4.4-1.2,9.6-1.1,14.4c1.4-0.9,2.7-1.8,4.1-2.6c1.1-0.7,2.3-1.4,3.4-2.1
			c6-15.5,15.8-37.3,28.2-51.8c0,0,35.9-6.1,77.2,11.5L485.8,229.8z"/>
		
			<linearGradient id="SVGID_22_" gradientUnits="userSpaceOnUse" x1="373.6969" y1="954.2358" x2="412.3858" y2="842.6489" gradientTransform="matrix(1 0 0 -1 0 1080)">
			<stop  offset="0" style="stop-color:#95A8CF"/>
			<stop  offset="1" style="stop-color:#000000"/>
		</linearGradient>
		<path class="st24" d="M452.7,186.6c-31.4-11.5-64.6-21.9-64.6-21.9c-10.2,15.7-32.1,71.9-33.1,74.6c11.5-39.1,24.6-80.3,29.6-82.3
			C389.3,155,420.7,170.1,452.7,186.6C452.7,186.6,452.7,186.6,452.7,186.6z"/>
	</g>
	<g>
		<path class="st19" d="M594.5,229.8c-1.1-0.2-2.2-0.4-3.4-0.6c9.5-6.8,19.4-12.5,29.1-17.3c0,0,0.1-0.1,0.2-0.1
			c5.5-2.7,11-5.2,16.2-7.4c0.2-0.1,0.3-0.1,0.5-0.2c25.1-10.3,45.3-14.3,46.4-14.4c0,0,0,0,0,0c0,0,0,0,0,0.1
			c13,25.2,21.2,50.4,26.1,70.1c0,0.1,0,0.2,0.1,0.2c0.1,0.3,0.1,0.5,0.2,0.8c1.5,5.9,2.7,11.3,3.6,16c-0.8-0.5-1.7-1.1-2.5-1.6
			c-1.4-0.9-2.7-1.8-4.1-2.6c-1.2-0.7-2.3-1.4-3.4-2.1c-31.9-19.4-67.5-33.2-105.4-40.3L594.5,229.8z"/>
		
			<linearGradient id="SVGID_23_" gradientUnits="userSpaceOnUse" x1="595.92" y1="845.815" x2="706.88" y2="845.815" gradientTransform="matrix(1 0 0 -1 0 1080)">
			<stop  offset="0" style="stop-color:#A3849F"/>
			<stop  offset="1" style="stop-color:#9A95A5"/>
		</linearGradient>
		<path class="st25" d="M595.9,230.1c16.8-11,49-29.2,84.9-34.6c0,0,15,23.6,26,77.4c-1.2-0.7-2.3-1.4-3.4-2.1
			c-31.9-19.4-67.5-33.2-105.4-40.3L595.9,230.1z"/>
		<path class="st21" d="M594.5,229.8c5.2-4.6,14.3-11.9,25.7-17.9c0,0,0.1-0.1,0.2-0.1c4.6-2.4,10.1-4.9,16.2-7.4
			c0.2-0.1,0.3-0.1,0.5-0.2c13.3-5.3,29.6-10.3,46.4-14.4c0,0,0,0,0,0c0,0,0,0,0,0.1c0.9,1.7,15.9,28.8,26.1,70.1
			c0,0.1,0,0.2,0.1,0.2c0.1,0.3,0.1,0.5,0.2,0.8c1,4.4,1.2,9.6,1.1,14.4c-1.4-0.9-2.7-1.8-4.1-2.6c-1.2-0.7-2.3-1.4-3.4-2.1
			c-6-15.5-15.8-37.3-28.2-51.8c0,0-35.9-6.1-77.2,11.5L594.5,229.8z"/>
		
			<linearGradient id="SVGID_24_" gradientUnits="userSpaceOnUse" x1="-11756.3926" y1="954.2338" x2="-11717.7041" y2="842.6469" gradientTransform="matrix(-1 0 0 -1 -11049.7803 1080)">
			<stop  offset="0" style="stop-color:#95A8CF"/>
			<stop  offset="1" style="stop-color:#000000"/>
		</linearGradient>
		<path class="st26" d="M627.6,186.6c31.4-11.5,64.6-21.9,64.6-21.9c10.2,15.7,32.1,71.9,33.1,74.6c-11.5-39.1-24.6-80.3-29.6-82.3
			C691,155,659.6,170.1,627.6,186.6C627.6,186.6,627.6,186.6,627.6,186.6z"/>
	</g>
	<g>
		<path class="st19" d="M796.3,357.5c-0.7-0.9-1.3-1.9-2-2.8c11.5,1.9,22.6,4.8,32.8,8.3c0.1,0,0.1,0,0.2,0c5.8,2,11.4,4.1,16.7,6.2
			c0.2,0.1,0.3,0.1,0.5,0.2c25.1,10.4,42.2,21.9,43.1,22.5c0,0,0,0,0,0c0,0,0,0,0,0.1c-8.6,27-20.6,50.6-31,68.1
			c0,0.1-0.1,0.1-0.1,0.2c-0.1,0.2-0.3,0.4-0.4,0.7c-3.1,5.2-6.1,9.9-8.8,13.9c-0.2-1-0.4-2-0.6-2.9c-0.3-1.6-0.7-3.2-1.1-4.8
			c-0.3-1.3-0.6-2.6-0.9-3.9c-8.9-36.2-24.3-71.1-46.2-103L796.3,357.5z"/>
		
			<linearGradient id="SVGID_25_" gradientUnits="userSpaceOnUse" x1="797.2" y1="666.95" x2="881.74" y2="666.95" gradientTransform="matrix(1 0 0 -1 0 1080)">
			<stop  offset="0" style="stop-color:#A3849F"/>
			<stop  offset="1" style="stop-color:#9A95A5"/>
		</linearGradient>
		<path class="st27" d="M797.2,358.7c19.6,4.1,55.3,13.9,84.5,35.5c0,0-6,27.3-36.2,73.1c-0.3-1.3-0.6-2.6-0.9-3.9
			c-8.9-36.2-24.3-71.1-46.2-103L797.2,358.7z"/>
		<path class="st21" d="M796.3,357.5c6.9,0.4,18.5,1.7,30.8,5.5c0.1,0,0.1,0,0.2,0c5,1.5,10.6,3.6,16.7,6.2c0.2,0.1,0.3,0.1,0.5,0.2
			c13.2,5.7,28.3,13.6,43.1,22.5c0,0,0,0,0,0c0,0,0,0,0,0.1c-0.5,1.8-9.1,31.6-31,68.1c0,0.1-0.1,0.1-0.1,0.2
			c-0.1,0.2-0.3,0.4-0.4,0.7c-2.4,3.8-5.9,7.6-9.4,11c-0.3-1.6-0.7-3.2-1.1-4.8c-0.3-1.3-0.6-2.6-0.9-3.9
			c6.7-15.2,15.2-37.5,16.6-56.6c0,0-21.1-29.6-62.8-46.4L796.3,357.5z"/>
		
			<linearGradient id="SVGID_26_" gradientUnits="userSpaceOnUse" x1="-13603.8945" y1="6301.4028" x2="-13568.04" y2="6197.9917" gradientTransform="matrix(-0.7142 -0.7 0.7 -0.7142 -13185.9463 -4657.5107)">
			<stop  offset="0" style="stop-color:#95A8CF"/>
			<stop  offset="1" style="stop-color:#000000"/>
		</linearGradient>
		<path class="st28" d="M849.2,353.7c28.2,12.8,57,27.4,57,27.4c-3.4,17-25.4,68.4-26.5,70.8c17.8-33.3,35.8-69.1,33.8-73.7
			C911.7,374,881.1,363.6,849.2,353.7C849.2,353.7,849.2,353.7,849.2,353.7z"/>
	</g>
	<g>
		<path class="st19" d="M796.3,721.3c-0.7,0.9-1.3,1.9-2,2.8c11.5-1.9,22.6-4.8,32.8-8.3c0.1,0,0.1,0,0.2,0c5.8-2,11.4-4.1,16.7-6.2
			c0.2-0.1,0.3-0.1,0.5-0.2c25.1-10.4,42.2-21.9,43.1-22.5c0,0,0,0,0,0c0,0,0,0,0-0.1c-8.6-27-20.6-50.6-31-68.1
			c0-0.1-0.1-0.1-0.1-0.2c-0.1-0.2-0.3-0.4-0.4-0.7c-3.1-5.2-6.1-9.9-8.8-13.9c-0.2,1-0.4,2-0.6,2.9c-0.3,1.6-0.7,3.2-1.1,4.8
			c-0.3,1.3-0.6,2.6-0.9,3.9c-8.9,36.2-24.3,71.2-46.2,103L796.3,721.3z"/>
		
			<linearGradient id="SVGID_27_" gradientUnits="userSpaceOnUse" x1="797.2" y1="414.22" x2="881.74" y2="414.22" gradientTransform="matrix(1 0 0 -1 0 1080)">
			<stop  offset="0" style="stop-color:#A3849F"/>
			<stop  offset="1" style="stop-color:#9A95A5"/>
		</linearGradient>
		<path class="st29" d="M797.2,720.1c19.6-4.1,55.3-13.9,84.5-35.5c0,0-6-27.3-36.2-73.2c-0.3,1.3-0.6,2.6-0.9,3.9
			c-8.9,36.2-24.3,71.2-46.2,103L797.2,720.1z"/>
		<path class="st21" d="M796.3,721.3c6.9-0.4,18.5-1.7,30.8-5.5c0.1,0,0.1,0,0.2,0c5-1.5,10.6-3.6,16.7-6.2c0.2-0.1,0.3-0.1,0.5-0.2
			c13.2-5.7,28.3-13.6,43.1-22.5c0,0,0,0,0,0c0,0,0,0,0-0.1c-0.5-1.8-9.1-31.6-31-68.1c0-0.1-0.1-0.1-0.1-0.2
			c-0.1-0.2-0.3-0.4-0.4-0.7c-2.4-3.8-5.9-7.7-9.4-11c-0.3,1.6-0.7,3.2-1.1,4.8c-0.3,1.3-0.6,2.6-0.9,3.9
			c6.7,15.2,15.2,37.5,16.6,56.6c0,0-21.1,29.7-62.8,46.3L796.3,721.3z"/>
		
			<linearGradient id="SVGID_28_" gradientUnits="userSpaceOnUse" x1="-6648.8218" y1="13397.5654" x2="-6612.9673" y2="13294.1533" gradientTransform="matrix(-0.7142 0.7 0.7 0.7142 -13185.9463 -4200.2891)">
			<stop  offset="0" style="stop-color:#95A8CF"/>
			<stop  offset="1" style="stop-color:#000000"/>
		</linearGradient>
		<path class="st30" d="M849.2,725.1c28.2-12.8,57-27.4,57-27.4c-3.4-17-25.4-68.4-26.5-70.8c17.8,33.3,35.8,69.1,33.8,73.7
			C911.7,704.9,881.1,715.3,849.2,725.1C849.2,725.1,849.2,725.1,849.2,725.1z"/>
	</g>
	<g>
		<path class="st19" d="M282.4,357.5c0.6-0.9,1.3-1.9,2-2.8c-11.5,1.9-22.6,4.8-32.8,8.3c-0.1,0-0.1,0-0.2,0
			c-5.8,2-11.4,4.1-16.7,6.2c-0.1,0.1-0.3,0.1-0.5,0.2c-25.1,10.4-42.2,21.9-43.1,22.5c0,0,0,0,0,0c0,0,0,0,0,0.1
			c8.6,27,20.6,50.6,31,68.1c0,0.1,0.1,0.1,0.1,0.2c0.1,0.2,0.3,0.4,0.4,0.7c3.1,5.2,6.1,9.9,8.8,13.9c0.2-1,0.4-2,0.6-2.9
			c0.3-1.6,0.7-3.2,1.1-4.8c0.3-1.3,0.6-2.6,0.9-3.9c8.9-36.2,24.3-71.1,46.2-103L282.4,357.5z"/>
		
			<linearGradient id="SVGID_29_" gradientUnits="userSpaceOnUse" x1="197" y1="666.95" x2="281.55" y2="666.95" gradientTransform="matrix(1 0 0 -1 0 1080)">
			<stop  offset="0" style="stop-color:#A3849F"/>
			<stop  offset="1" style="stop-color:#9A95A5"/>
		</linearGradient>
		<path class="st31" d="M281.5,358.7c-19.6,4.1-55.3,13.9-84.6,35.5c0,0,6,27.3,36.2,73.1c0.3-1.3,0.6-2.6,0.9-3.9
			c8.9-36.2,24.3-71.1,46.2-103L281.5,358.7z"/>
		<path class="st21" d="M282.4,357.5c-6.9,0.4-18.5,1.7-30.8,5.5c-0.1,0-0.1,0-0.2,0c-5,1.5-10.6,3.6-16.7,6.2
			c-0.1,0.1-0.3,0.1-0.5,0.2c-13.2,5.7-28.3,13.6-43.1,22.5c0,0,0,0,0,0c0,0,0,0,0,0.1c0.5,1.8,9.1,31.6,31,68.1
			c0,0.1,0.1,0.1,0.1,0.2c0.1,0.2,0.3,0.4,0.4,0.7c2.4,3.8,5.9,7.6,9.4,11c0.3-1.6,0.7-3.2,1.1-4.8c0.3-1.3,0.6-2.6,0.9-3.9
			c-6.7-15.2-15.1-37.5-16.6-56.6c0,0,21.1-29.6,62.8-46.4L282.4,357.5z"/>
		
			<linearGradient id="SVGID_30_" gradientUnits="userSpaceOnUse" x1="-5652.7563" y1="-1491.6437" x2="-5616.9019" y2="-1595.0546" gradientTransform="matrix(0.7142 -0.7 -0.7 -0.7142 3130.8557 -4657.5107)">
			<stop  offset="0" style="stop-color:#95A8CF"/>
			<stop  offset="1" style="stop-color:#000000"/>
		</linearGradient>
		<path class="st32" d="M229.6,353.7c-28.2,12.8-57,27.4-57,27.4c3.4,17,25.4,68.4,26.5,70.8c-17.8-33.3-35.8-69.1-33.8-73.7
			C167.1,374,197.6,363.6,229.6,353.7C229.6,353.7,229.6,353.7,229.6,353.7z"/>
	</g>
	<g>
		<path class="st19" d="M282.4,721.3c0.6,0.9,1.3,1.9,2,2.8c-11.5-1.9-22.6-4.8-32.8-8.3c-0.1,0-0.1,0-0.2,0
			c-5.8-2-11.4-4.1-16.7-6.2c-0.1-0.1-0.3-0.1-0.5-0.2c-25.1-10.4-42.2-21.9-43.1-22.5c0,0,0,0,0,0c0,0,0,0,0-0.1
			c8.6-27,20.6-50.6,31-68.1c0-0.1,0.1-0.1,0.1-0.2c0.1-0.2,0.3-0.4,0.4-0.7c3.1-5.2,6.1-9.9,8.8-13.9c0.2,1,0.4,2,0.6,2.9
			c0.3,1.6,0.7,3.2,1.1,4.8c0.3,1.3,0.6,2.6,0.9,3.9c8.9,36.2,24.3,71.2,46.2,103L282.4,721.3z"/>
		
			<linearGradient id="SVGID_31_" gradientUnits="userSpaceOnUse" x1="197" y1="414.22" x2="281.55" y2="414.22" gradientTransform="matrix(1 0 0 -1 0 1080)">
			<stop  offset="0" style="stop-color:#A3849F"/>
			<stop  offset="1" style="stop-color:#9A95A5"/>
		</linearGradient>
		<path class="st33" d="M281.5,720.1c-19.6-4.1-55.3-13.9-84.6-35.5c0,0,6-27.3,36.2-73.2c0.3,1.3,0.6,2.6,0.9,3.9
			c8.9,36.2,24.3,71.2,46.2,103L281.5,720.1z"/>
		<path class="st21" d="M282.4,721.3c-6.9-0.4-18.5-1.7-30.8-5.5c-0.1,0-0.1,0-0.2,0c-5-1.5-10.6-3.6-16.7-6.2
			c-0.1-0.1-0.3-0.1-0.5-0.2c-13.2-5.7-28.3-13.6-43.1-22.5c0,0,0,0,0,0c0,0,0,0,0-0.1c0.5-1.8,9.1-31.6,31-68.1
			c0-0.1,0.1-0.1,0.1-0.2c0.1-0.2,0.3-0.4,0.4-0.7c2.4-3.8,5.9-7.7,9.4-11c0.3,1.6,0.7,3.2,1.1,4.8c0.3,1.3,0.6,2.6,0.9,3.9
			c-6.7,15.2-15.1,37.5-16.6,56.6c0,0,21.1,29.7,62.8,46.3L282.4,721.3z"/>
		
			<linearGradient id="SVGID_32_" gradientUnits="userSpaceOnUse" x1="1302.3164" y1="5604.5181" x2="1338.1708" y2="5501.1064" gradientTransform="matrix(0.7142 0.7 -0.7 0.7142 3130.8557 -4200.2891)">
			<stop  offset="0" style="stop-color:#95A8CF"/>
			<stop  offset="1" style="stop-color:#000000"/>
		</linearGradient>
		<path class="st34" d="M229.6,725.1c-28.2-12.8-57-27.4-57-27.4c3.4-17,25.4-68.4,26.5-70.8c-17.8,33.3-35.8,69.1-33.8,73.7
			C167.1,704.9,197.6,715.3,229.6,725.1C229.6,725.1,229.6,725.1,229.6,725.1z"/>
	</g>
	
		<linearGradient id="SVGID_33_" gradientUnits="userSpaceOnUse" x1="255.74" y1="325.37" x2="832.57" y2="325.37" gradientTransform="matrix(1 0 0 -1 0 1080)">
		<stop  offset="0" style="stop-color:#662D87"/>
		<stop  offset="1" style="stop-color:#D01C5C"/>
	</linearGradient>
	<path class="st35" d="M832.6,655.3C786.5,771.7,672.9,854,540.1,854c-125.6,0-234-73.6-284.4-180
		C371.7,780.8,607.3,880.5,832.6,655.3z"/>
	<path class="st36" d="M813.9,735.7c-14.2,4.1-27.1,7.7-36.5,10.3c-10.9,12.5-22.8,24.2-35.5,34.8c-2.7,10-7.1,25.6-12,42.8
		c-36.8,26.3-79.6,47.1-122,58.6c-26.6-14.1-49.6-26.8-52.7-28.5c-5,0.2-10,0.4-15.1,0.4S530,854,525,853.8
		c-3.1,1.7-26.8,14.8-53.9,29.1c-42.5-10.8-84.6-30.6-120.1-56.8c-5.3-18.2-9.9-34.8-12.7-45.3c-12.7-10.7-24.6-22.3-35.5-34.8
		c-7.9-2.2-18.2-5-29.7-8.3c-10.1-20.2-16.3-41.7-17.4-63.8c83.5,138.1,363.7,302.5,576.8-18.6C836.6,681.7,829.3,709.2,813.9,735.7
		z"/>
	
		<linearGradient id="SVGID_34_" gradientUnits="userSpaceOnUse" x1="543.96" y1="845.5742" x2="543.96" y2="711.3922" gradientTransform="matrix(1 0 0 -1 0 1080)">
		<stop  offset="0" style="stop-color:#95A8CF"/>
		<stop  offset="1" style="stop-color:#000000"/>
	</linearGradient>
	<path class="st37" d="M540.1,225c-142.3,0-262.5,94.5-301.3,224.3c51.5-113.8,168.3-168.6,301.3-168.6
		c145.1,0,265.8,69.8,309,200.3C821.8,335.3,693.8,225,540.1,225z"/>
	<path class="st38" d="M540.1,280.7c-142.9,0-258.8,115.9-258.8,258.8s115.9,258.8,258.8,258.8s258.8-115.9,258.8-258.8
		S683,280.7,540.1,280.7z M540.1,776.6C409.2,776.6,303,670.4,303,539.5s106.2-237.1,237.1-237.1c130.9,0,237.1,106.1,237.1,237.1
		S671,776.6,540.1,776.6z"/>
	
		<linearGradient id="SVGID_35_" gradientUnits="userSpaceOnUse" x1="540.105" y1="213.8646" x2="540.105" y2="362.3726" gradientTransform="matrix(1 0 0 -1 0 1080)">
		<stop  offset="0" style="stop-color:#A3849F"/>
		<stop  offset="1" style="stop-color:#9A95A5"/>
	</linearGradient>
	<path class="st39" d="M331.8,693.1c0,0,69.3,83.5,208.3,83.5s208.3-83.5,208.3-83.5s-67.7,109-208.3,109S331.8,693.1,331.8,693.1z"
		/>
	
		<linearGradient id="SVGID_36_" gradientUnits="userSpaceOnUse" x1="540.105" y1="278.3078" x2="540.105" y2="393.8478" gradientTransform="matrix(1 0 0 -1 0 1080)">
		<stop  offset="0" style="stop-color:#FFFFFF"/>
		<stop  offset="1" style="stop-color:#FFF7C4"/>
	</linearGradient>
	<path class="st40" d="M331.8,693.1c0,0,69.4,105.2,208.3,105.2s208.3-105.2,208.3-105.2s-67.7,109-208.3,109
		S331.8,693.1,331.8,693.1z"/>
	
		<linearGradient id="SVGID_37_" gradientUnits="userSpaceOnUse" x1="286.65" y1="696.18" x2="789.2" y2="696.18" gradientTransform="matrix(1 0 0 -1 0 1080)">
		<stop  offset="0" style="stop-color:#662D87"/>
		<stop  offset="1" style="stop-color:#D01C5C"/>
	</linearGradient>
	<path class="st41" d="M789.2,469.1c-6.1-3.5-15.5-9.2-29.2-18.4l0,0c0,0-83.6-108.8-219.9-108.8c-153.1,0-223,116.8-223,116.8
		c-12.5,13.1-23.6,23.6-30.5,28.2c24.3-117.7,128.5-206.3,253.5-206.3C658.6,280.7,758.5,360.4,789.2,469.1z"/>
	<path class="st42" d="M521.8,801.4c-6-11.1,58.7-22.2,67.8-14.1c9.1,8.1-7.1,11.3-7.1,11.3L521.8,801.4z"/>
	<path class="st42" d="M630.6,285.3c-1.8-12.5,62.8-0.9,68.6,9.9c5.8,10.7-10.6,8.2-10.6,8.2L630.6,285.3z"/>
	<path class="st21" d="M914.8,394.3c0.2,8.7-42.1,92.1-60.8,126.4l-1.3-20.4c0,0,53.3-82.8,60.8-122l1.6,3.3v0
		C915.2,386,914.8,393.7,914.8,394.3z"/>
	
		<linearGradient id="SVGID_38_" gradientUnits="userSpaceOnUse" x1="883.8948" y1="525.5894" x2="883.8948" y2="365.6902" gradientTransform="matrix(1 0 0 -1 0 1080)">
		<stop  offset="0" style="stop-color:#95A8CF"/>
		<stop  offset="1" style="stop-color:#000000"/>
	</linearGradient>
	<path class="st43" d="M914.8,700.8c-0.1,0.3-0.5,0.7-1,1.1c-0.1-0.4-0.2-0.8-0.4-1.3c-12.8-46.6-60.8-121.9-60.8-121.9l1.3-20.3
		c18.7,34.3,64.1,118.6,60.8,126.4C914.5,685.5,915.5,699.2,914.8,700.8z"/>
	
		<linearGradient id="SVGID_39_" gradientUnits="userSpaceOnUse" x1="195.6735" y1="525.5485" x2="195.6735" y2="367.2661" gradientTransform="matrix(1 0 0 -1 0 1080)">
		<stop  offset="0" style="stop-color:#95A8CF"/>
		<stop  offset="1" style="stop-color:#000000"/>
	</linearGradient>
	<path class="st44" d="M226.2,558.5v23.5c0,0-37.2,53.2-60.9,118.5c-0.5-2.6,0.4-14.9,0.1-15.6C162.1,677,207.5,592.7,226.2,558.5z"
		/>
	<path class="st21" d="M226.2,495.9v24.7c-18.7-34.3-61-115-60.8-126.4c0-0.8-0.6-13.7-0.1-15.8
		C192.5,454.3,226.2,495.9,226.2,495.9z"/>
	
		<radialGradient id="SVGID_40_" cx="449.23" cy="192.4811" r="58.9879" gradientTransform="matrix(1 0 0 -1 0 1080)" gradientUnits="userSpaceOnUse">
		<stop  offset="2.230000e-02" style="stop-color:#5A4153"/>
		<stop  offset="0.9485" style="stop-color:#3E2645"/>
	</radialGradient>
	<path class="st45" d="M511,852.6l14,1.1c-7.3,4-130.9,72.5-140.4,68.5c-2.3-1-6.4-10.4-11.2-24.1c0.5,1.1,9.2,18.9,13.8,18.9
		C392.1,917.1,511,852.6,511,852.6z"/>
	
		<radialGradient id="SVGID_41_" cx="630.965" cy="192.6561" r="59.0301" gradientTransform="matrix(1 0 0 -1 0 1080)" gradientUnits="userSpaceOnUse">
		<stop  offset="2.230000e-02" style="stop-color:#5A4153"/>
		<stop  offset="0.9485" style="stop-color:#3E2645"/>
	</radialGradient>
	<path class="st46" d="M706.7,898.3c-4.8,13.7-8.9,23-11.2,24c-9.5,4-133.1-64.5-140.4-68.5l17.5-1.5c0,0,83.3,52.2,117.2,62.6
		C698.5,917.6,706.1,899.8,706.7,898.3z"/>
	<path class="st4" d="M428.9,683.3c0,20.9,50.4-4.6,51.6-18.8c1.2-14.2-18.6-26.2-31.9-23.9C435.4,643,428.9,674.6,428.9,683.3z"/>
	<path class="st19" d="M668.4,518.2c5.8,6.7,14.8,9.9,17,5c2.2-5-10.2-16.5-12.8-15.4C670.1,508.9,664.5,513.7,668.4,518.2z"/>
	<g>
		<g>
			<polygon class="st0" points="699.5,488.3 640.7,479.7 624.6,477.4 586.4,471.8 535.8,369.4 485.3,471.8 372.2,488.3 454,568 
				434.7,680.7 535.8,627.5 637,680.7 617.7,568 			"/>
			<g>
				
					<linearGradient id="SVGID_42_" gradientUnits="userSpaceOnUse" x1="371.59" y1="551.845" x2="538.18" y2="551.845" gradientTransform="matrix(1 0 0 -1 0 1080)">
					<stop  offset="0" style="stop-color:#E8ACE4"/>
					<stop  offset="1" style="stop-color:#705AB5"/>
				</linearGradient>
				<polygon class="st47" points="371.6,488.3 538.2,531.8 453.4,568 				"/>
				
					<linearGradient id="SVGID_43_" gradientUnits="userSpaceOnUse" x1="538.18" y1="551.845" x2="698.91" y2="551.845" gradientTransform="matrix(1 0 0 -1 0 1080)">
					<stop  offset="0" style="stop-color:#E8ACE4"/>
					<stop  offset="1" style="stop-color:#705AB5"/>
				</linearGradient>
				<polygon class="st48" points="698.9,488.3 538.2,531.8 617.1,568 				"/>
				<polygon class="st49" points="535.3,627.5 538.2,531.8 434.1,680.7 				"/>
				<polygon class="st36" points="636.4,680.7 538.2,531.8 535.3,627.5 				"/>
				
					<linearGradient id="SVGID_44_" gradientUnits="userSpaceOnUse" x1="546.5505" y1="632.5912" x2="476.7142" y2="498.7381" gradientTransform="matrix(1 0 0 -1 0 1080)">
					<stop  offset="0" style="stop-color:#95A8CF"/>
					<stop  offset="1" style="stop-color:#000000"/>
				</linearGradient>
				<polygon class="st50" points="535.3,369.4 538.2,531.8 585.8,471.8 				"/>
				
					<linearGradient id="SVGID_45_" gradientUnits="userSpaceOnUse" x1="628.8298" y1="589.6627" x2="558.9935" y2="455.8094" gradientTransform="matrix(1 0 0 -1 0 1080)">
					<stop  offset="0" style="stop-color:#95A8CF"/>
					<stop  offset="1" style="stop-color:#000000"/>
				</linearGradient>
				<polygon class="st51" points="698.9,488.3 538.2,531.8 585.8,471.8 				"/>
				
					<linearGradient id="SVGID_46_" gradientUnits="userSpaceOnUse" x1="500.1877" y1="656.7803" x2="430.3515" y2="522.9274" gradientTransform="matrix(1 0 0 -1 0 1080)">
					<stop  offset="0" style="stop-color:#95A8CF"/>
					<stop  offset="1" style="stop-color:#000000"/>
				</linearGradient>
				<polygon class="st52" points="484.7,471.8 538.2,531.8 371.6,488.3 				"/>
			</g>
		</g>
		<path class="st53" d="M497.8,471.7c-1.1,24.2,32.1,34.2,34.2,25.1c2.1-9.1-0.5-75.3-8.4-71.9C515.7,428.5,498,465,497.8,471.7z"/>
		
			<linearGradient id="SVGID_47_" gradientUnits="userSpaceOnUse" x1="434.68" y1="473.75" x2="636.4" y2="473.75" gradientTransform="matrix(1 0 0 -1 0 1080)">
			<stop  offset="0" style="stop-color:#662D87"/>
			<stop  offset="1" style="stop-color:#D01C5C"/>
		</linearGradient>
		<polygon class="st54" points="434.7,680.7 538.2,531.8 636.4,680.7 538.2,660.1 		"/>
		<path class="st42" d="M560.5,525c11.2-24,58-15,58-15L560.5,525z"/>
		
			<linearGradient id="SVGID_48_" gradientUnits="userSpaceOnUse" x1="371.59" y1="524.36" x2="471.8" y2="524.36" gradientTransform="matrix(1 0 0 -1 0 1080)">
			<stop  offset="0" style="stop-color:#662D87"/>
			<stop  offset="1" style="stop-color:#D01C5C"/>
		</linearGradient>
		<polygon class="st55" points="371.6,488.3 444.6,623 471.8,560.2 		"/>
		
			<linearGradient id="SVGID_49_" gradientUnits="userSpaceOnUse" x1="592.88" y1="521.065" x2="698.91" y2="521.065" gradientTransform="matrix(1 0 0 -1 0 1080)">
			<stop  offset="0" style="stop-color:#662D87"/>
			<stop  offset="1" style="stop-color:#D01C5C"/>
		</linearGradient>
		<polygon class="st56" points="698.9,488.3 592.9,556.9 628.2,629.6 		"/>
		<path class="st53" d="M475.8,563.8c-17.5,6.5-22.4,66.7-17.1,68.9S546.5,537.6,475.8,563.8z"/>
	</g>
	<path class="st53" d="M466.2,743.3c18.6,12,171.4,18.6,149.1-8.5c-58.3-70.7-119.5-40.8-142-24.7
		C450.8,726.1,454,735.4,466.2,743.3z"/>
</g>
</svg>
