<?xml version="1.0" encoding="utf-8"?>
<!-- Generator: Adobe Illustrator 24.0.1, SVG Export Plug-In . SVG Version: 6.00 Build 0)  -->
<svg version="1.1" id="Слой_1" xmlns="http://www.w3.org/2000/svg" xmlns:xlink="http://www.w3.org/1999/xlink" x="0px" y="0px"
	 viewBox="0 0 1080 1080" style="enable-background:new 0 0 1080 1080;" xml:space="preserve">
<style type="text/css">
	.st0{fill:url(#SVGID_1_);}
	.st1{fill:#7C1338;}
	.st2{fill:url(#SVGID_2_);}
	.st3{opacity:0.5;fill:url(#SVGID_3_);}
	.st4{opacity:0.5;fill:url(#SVGID_4_);}
	.st5{opacity:0.5;fill:url(#SVGID_5_);}
	.st6{opacity:0.5;fill:url(#SVGID_6_);}
	.st7{opacity:0.5;fill:url(#SVGID_7_);}
	.st8{opacity:0.5;fill:url(#SVGID_8_);}
	.st9{opacity:0.5;fill:url(#SVGID_9_);}
	.st10{opacity:0.4;fill:url(#SVGID_10_);}
	.st11{opacity:0.5;fill:url(#SVGID_11_);}
	.st12{opacity:0.5;fill:url(#SVGID_12_);}
	.st13{opacity:0.5;fill:url(#SVGID_13_);}
	.st14{opacity:0.4;fill:url(#SVGID_14_);}
	.st15{fill:url(#SVGID_15_);}
	.st16{opacity:0.5;fill:url(#SVGID_16_);}
	.st17{opacity:0.5;fill:url(#SVGID_17_);}
	.st18{fill:url(#SVGID_18_);}
	.st19{fill:url(#SVGID_19_);}
	.st20{fill:url(#SVGID_20_);}
	.st21{fill:url(#SVGID_21_);}
	.st22{fill:url(#SVGID_22_);}
	.st23{fill:url(#SVGID_23_);}
	.st24{fill:url(#SVGID_24_);}
	.st25{fill:url(#SVGID_25_);}
	.st26{opacity:0.5;fill:url(#SVGID_26_);}
	.st27{opacity:0.5;fill:url(#SVGID_27_);}
	.st28{opacity:0.5;fill:url(#SVGID_28_);}
	.st29{opacity:0.5;fill:url(#SVGID_29_);}
	.st30{opacity:0.5;fill:url(#SVGID_30_);}
	.st31{opacity:0.5;fill:url(#SVGID_31_);}
	.st32{opacity:0.5;fill:url(#SVGID_32_);}
	.st33{opacity:0.5;fill:url(#SVGID_33_);}
	.st34{opacity:0.5;fill:url(#SVGID_34_);}
	.st35{opacity:0.5;fill:url(#SVGID_35_);}
	.st36{opacity:0.4;fill:url(#SVGID_36_);}
	.st37{opacity:0.3;fill:url(#SVGID_37_);}
	.st38{opacity:0.3;fill:url(#SVGID_38_);}
	.st39{fill:url(#SVGID_39_);}
	.st40{fill:url(#SVGID_40_);}
</style>
<g>
	<linearGradient id="SVGID_1_" gradientUnits="userSpaceOnUse" x1="542.2911" y1="809.2067" x2="542.2911" y2="492.7089">
		<stop  offset="0" style="stop-color:#A62B2B"/>
		<stop  offset="1" style="stop-color:#9E2D16"/>
	</linearGradient>
	<ellipse class="st0" cx="542.29" cy="538.77" rx="334.79" ry="338.02"/>
	<polygon class="st1" points="260.67,528.59 362.12,532.04 414.81,531.48 542.29,544.61 660.87,535.11 713.46,522.73 734.28,522.37 
		820.28,519.6 819.9,524 720.85,524.94 653.39,543.4 543.04,548.24 419.42,536.01 362.67,534.03 260.47,531.77 	"/>
	<polygon class="st1" points="485.62,473.11 540,369.52 593.63,473.75 710.39,492.72 626.93,573.46 645.52,689.31 540,633.64 
		435.5,687.47 452.53,575.12 367.88,492.72 	"/>
	<g>
		<g>
			<linearGradient id="SVGID_2_" gradientUnits="userSpaceOnUse" x1="646.2" y1="525.6532" x2="414.1363" y2="551.7485">
				<stop  offset="0.0223" style="stop-color:#CD6D22"/>
				<stop  offset="0.9541" style="stop-color:#C74D3E"/>
			</linearGradient>
			<polygon class="st2" points="701.93,495.26 643.72,486.72 627.81,484.38 590.02,478.84 539.97,376.45 489.92,478.84 378,495.26 
				458.98,574.96 439.87,687.49 539.97,634.36 640.07,687.49 620.95,574.96 			"/>
			<g>
				<linearGradient id="SVGID_3_" gradientUnits="userSpaceOnUse" x1="377.4296" y1="535.1065" x2="542.2916" y2="535.1065">
					<stop  offset="0" style="stop-color:#961F63"/>
					<stop  offset="1" style="stop-color:#EA7052"/>
				</linearGradient>
				<polygon class="st3" points="377.43,495.26 542.29,538.77 458.41,574.96 				"/>
				<linearGradient id="SVGID_4_" gradientUnits="userSpaceOnUse" x1="542.2916" y1="535.1065" x2="701.3573" y2="535.1065">
					<stop  offset="0" style="stop-color:#961F63"/>
					<stop  offset="1" style="stop-color:#EA7052"/>
				</linearGradient>
				<polygon class="st4" points="701.36,495.26 542.29,538.77 620.38,574.96 				"/>
				<linearGradient id="SVGID_5_" gradientUnits="userSpaceOnUse" x1="439.2946" y1="613.134" x2="542.2916" y2="613.134">
					<stop  offset="0" style="stop-color:#961F63"/>
					<stop  offset="1" style="stop-color:#EA7052"/>
				</linearGradient>
				<polygon class="st5" points="539.39,634.36 542.29,538.77 439.29,687.49 				"/>
				<linearGradient id="SVGID_6_" gradientUnits="userSpaceOnUse" x1="539.3934" y1="613.134" x2="639.4923" y2="613.134">
					<stop  offset="0" style="stop-color:#961F63"/>
					<stop  offset="1" style="stop-color:#EA7052"/>
				</linearGradient>
				<polygon class="st6" points="639.49,687.49 542.29,538.77 539.39,634.36 				"/>
				
					<radialGradient id="SVGID_7_" cx="564.3325" cy="458.672" r="59.3212" gradientTransform="matrix(1.0036 0 0 1.0133 -1.928 -7.1411)" gradientUnits="userSpaceOnUse">
					<stop  offset="0.0223" style="stop-color:#FFA41A"/>
					<stop  offset="1" style="stop-color:#FF8836"/>
				</radialGradient>
				<polygon class="st7" points="539.39,376.45 542.29,538.77 589.44,478.84 				"/>
				
					<radialGradient id="SVGID_8_" cx="592.6246" cy="496.1926" r="39.0041" gradientTransform="matrix(1.0036 0 0 1.0133 -1.928 -7.1411)" gradientUnits="userSpaceOnUse">
					<stop  offset="0.0223" style="stop-color:#FFA41A"/>
					<stop  offset="1" style="stop-color:#FF8836"/>
				</radialGradient>
				<polygon class="st8" points="701.36,495.26 542.29,538.77 589.44,478.84 				"/>
				
					<radialGradient id="SVGID_9_" cx="460.1468" cy="509.1978" r="61.7306" gradientTransform="matrix(1.0036 0 0 1.0133 -1.928 -7.1411)" gradientUnits="userSpaceOnUse">
					<stop  offset="0.0223" style="stop-color:#FFA41A"/>
					<stop  offset="1" style="stop-color:#FF8836"/>
				</radialGradient>
				<polygon class="st9" points="489.34,478.84 542.29,538.77 377.43,495.26 				"/>
			</g>
		</g>
		
			<radialGradient id="SVGID_10_" cx="519.5922" cy="470.4125" r="28.9309" gradientTransform="matrix(1.0036 0 0 1.0133 -1.928 -7.1411)" gradientUnits="userSpaceOnUse">
			<stop  offset="0.0223" style="stop-color:#FFA41A"/>
			<stop  offset="1" style="stop-color:#FF8836"/>
		</radialGradient>
		<path class="st10" d="M502.28,478.73c-1.05,24.14,31.77,34.17,33.82,25.08c2.05-9.09-0.49-75.24-8.28-71.79
			C520.03,435.48,502.57,472.02,502.28,478.73z"/>
		<linearGradient id="SVGID_11_" gradientUnits="userSpaceOnUse" x1="439.867" y1="613.134" x2="639.4923" y2="613.134">
			<stop  offset="0" style="stop-color:#961F63"/>
			<stop  offset="1" style="stop-color:#EA7052"/>
		</linearGradient>
		<polygon class="st11" points="439.87,687.49 542.29,538.77 639.49,687.49 535.03,668.36 		"/>
		<linearGradient id="SVGID_12_" gradientUnits="userSpaceOnUse" x1="377.4296" y1="562.5676" x2="542.2916" y2="562.5676">
			<stop  offset="0" style="stop-color:#961F63"/>
			<stop  offset="1" style="stop-color:#EA7052"/>
		</linearGradient>
		<polygon class="st12" points="377.43,495.26 449.65,629.88 542.29,538.77 		"/>
		<linearGradient id="SVGID_13_" gradientUnits="userSpaceOnUse" x1="542.2916" y1="553.9169" x2="701.3573" y2="553.9169">
			<stop  offset="0" style="stop-color:#961F63"/>
			<stop  offset="1" style="stop-color:#EA7052"/>
		</linearGradient>
		<polygon class="st13" points="701.36,495.26 542.29,538.77 627.34,612.58 		"/>
		
			<radialGradient id="SVGID_14_" cx="485.4098" cy="602.1301" r="30.5196" gradientTransform="matrix(1.0036 0 0 1.0133 -1.928 -7.1411)" gradientUnits="userSpaceOnUse">
			<stop  offset="0.0223" style="stop-color:#FFA41A"/>
			<stop  offset="1" style="stop-color:#FF8836"/>
		</radialGradient>
		<path class="st14" d="M480.57,570.76c-17.35,6.49-22.19,66.68-16.89,68.86C468.97,641.81,550.56,544.58,480.57,570.76z"/>
	</g>
	<linearGradient id="SVGID_15_" gradientUnits="userSpaceOnUse" x1="540.3333" y1="193.9045" x2="540.3333" y2="973.0079">
		<stop  offset="0.0223" style="stop-color:#CD6D22"/>
		<stop  offset="0.9541" style="stop-color:#C74D3E"/>
	</linearGradient>
	<path class="st15" d="M911,561.31c0.04-0.66,1.56-22.54,0-45.07c22.11-40.84-45.35-211.04-90.49-223.59
		c-12.86-14.92-26.88-28.79-41.91-41.5c-11.32-41.72-211.85-91.76-220.44-86.95c-5.91-0.28-11.85-0.43-17.83-0.43
		c-5.98,0-11.92,0.14-17.82,0.43c-8.59-4.81-209.12,45.22-220.44,86.95c-15.03,12.71-29.05,26.58-41.91,41.5
		c-45.14,12.55-112.6,182.74-90.49,223.59c-2.37,22.45-0.04,44.41,0,45.07c-22.11,40.84,45.35,211.04,90.49,223.59
		c12.86,14.92,26.89,28.8,41.91,41.5c11.32,41.73,211.85,91.76,220.44,86.95c5.91,0.28,11.85,0.43,17.82,0.43
		c5.98,0,11.92-0.14,17.83-0.43c8.59,4.81,209.12-45.22,220.44-86.95c15.02-12.71,29.05-26.58,41.91-41.5
		C865.65,772.35,933.11,602.15,911,561.31z M820.28,538.77c-0.04,156.07-125.37,282.56-279.95,282.56
		c-154.58,0-279.9-126.5-279.94-282.56c0.04-156.07,125.37-282.56,279.94-282.56C694.91,256.21,820.24,382.71,820.28,538.77z"/>
	<linearGradient id="SVGID_16_" gradientUnits="userSpaceOnUse" x1="545.4704" y1="926.837" x2="545.4704" y2="715.9667">
		<stop  offset="0" style="stop-color:#961F63"/>
		<stop  offset="1" style="stop-color:#EA7052"/>
	</linearGradient>
	<path class="st16" d="M893.69,676.75c0.01,0.01,0,0.02-0.01,0.03c-19.8,51.79-49.55,101.55-73.17,108.11
		c-12.87,14.92-26.89,28.79-41.91,41.5c-11.33,41.72-211.86,91.75-220.44,86.94c-5.91,0.29-11.85,0.43-17.83,0.43
		c-5.98,0-11.92-0.15-17.83-0.42c-8.58,4.8-209.11-45.23-220.43-86.95c-15.03-12.7-29.05-26.58-41.92-41.5
		c-19.82-5.51-43.95-41.41-62.89-83.42c-0.01-0.01-0.01-0.02-0.01-0.03C334.12,828.8,627.75,945.26,893.69,676.75z"/>
	
		<radialGradient id="SVGID_17_" cx="544.7913" cy="317.6057" r="279.6547" gradientTransform="matrix(1.0036 0 0 1.0133 -1.928 -7.1411)" gradientUnits="userSpaceOnUse">
		<stop  offset="0.0223" style="stop-color:#FFA41A"/>
		<stop  offset="1" style="stop-color:#FF8836"/>
	</radialGradient>
	<path class="st17" d="M820.51,292.65c-12.87-14.93-26.89-28.8-41.91-41.5c-11.33-41.72-211.86-91.76-220.44-86.95
		c-5.91-0.28-11.85-0.42-17.83-0.42c-5.98,0-11.92,0.14-17.83,0.42c-8.58-4.81-209.11,45.22-220.43,86.95
		c-15.03,12.7-29.05,26.57-41.92,41.5c-27.98,7.77-64.56,76.16-83.03,136.75c0.84,1.63,1.72,3.25,2.65,4.89
		c60.76-135.67,203.51-204.12,360.58-204.12c171.3,0,321.07,79.76,372.14,235.41l0.01-0.01
		C900.64,399.87,854.32,302.04,820.51,292.65z"/>
	<g>
		<path class="st1" d="M211.07,348.29c62.99,7.66,124.35-2.02,124.35-2.02c-2.48,2.69-4.92,5.44-7.28,8.23l-122.1,3.3
			C207.7,354.56,211.07,348.29,211.07,348.29z"/>
		<path class="st1" d="M864.86,339.95l-122.43,3.32c-1.13-1.2-2.29-2.4-3.46-3.58l124.51-2.02
			C863.94,338.43,864.4,339.19,864.86,339.95z"/>
		<path class="st1" d="M168.83,527.67l91.83-1.54c-0.09,1.88-0.15,3.75-0.19,5.64l-91.81,1.27
			C168.7,531.29,168.75,529.5,168.83,527.67z"/>
		<path class="st1" d="M911,516.24c0.15,2.17,0.27,4.34,0.37,6.49L819.9,524c-0.13-2.43-0.28-4.84-0.46-7.24l92.08-1.54
			C911.36,515.56,911.19,515.91,911,516.24z"/>
		<path class="st1" d="M298.69,681.49c2.02,3.5,4.14,6.95,6.32,10.35c-39.73,0.58-77.19,1.12-111.28,1.6
			c-1.35-3.16-2.67-6.35-3.95-9.54C224.11,693.01,256.56,687.46,298.69,681.49z"/>
		<path class="st1" d="M896.32,669.73c-1.58,4.33-3.23,8.67-4.95,12.97c-34.99,0.61-72.36,1.24-111.22,1.88
			c2.51-4.2,4.92-8.46,7.21-12.81C820.28,681.49,849.75,683.42,896.32,669.73z"/>
		<path class="st1" d="M742.74,857.14c-5.3,2.78-11.02,5.51-17.05,8.21l-364.86,2.57c-6.14-2.62-12.01-5.31-17.5-8.02
			c0,0,152.93,2.96,199.71,2.63C596.11,862.16,742.74,857.14,742.74,857.14z"/>
		<path class="st1" d="M723.12,211.07c-119.68-1.53-247.75-3.13-355.25-4.38c7.09-2.88,14.46-5.7,21.97-8.42
			c0,0,126.78,6.4,167.2,6.4c34.82,0,133.75-6.4,133.75-6.4C702.07,202.34,713.01,206.63,723.12,211.07z"/>
		
			<radialGradient id="SVGID_18_" cx="264.7274" cy="360.1752" r="40.7157" gradientTransform="matrix(1.0036 0 0 1.0133 -1.928 -7.1411)" gradientUnits="userSpaceOnUse">
			<stop  offset="0.0223" style="stop-color:#FFA41A"/>
			<stop  offset="1" style="stop-color:#FF8836"/>
		</radialGradient>
		<path class="st18" d="M206.04,357.79l115.41-3.12C321.45,354.67,247.36,366.39,206.04,357.79z"/>
		
			<radialGradient id="SVGID_19_" cx="206.0502" cy="534.0884" r="25.5434" gradientTransform="matrix(1.0036 0 0 1.0133 -1.928 -7.1411)" gradientUnits="userSpaceOnUse">
			<stop  offset="0.0223" style="stop-color:#FFA41A"/>
			<stop  offset="1" style="stop-color:#FF8836"/>
		</radialGradient>
		<path class="st19" d="M168.66,533.04l72.4-1C241.06,532.04,200.83,540.28,168.66,533.04z"/>
		
			<radialGradient id="SVGID_20_" cx="237.4179" cy="692.0133" r="30.0503" gradientTransform="matrix(1.0036 0 0 1.0133 -1.928 -7.1411)" gradientUnits="userSpaceOnUse">
			<stop  offset="0.0223" style="stop-color:#FFA41A"/>
			<stop  offset="1" style="stop-color:#FF8836"/>
		</radialGradient>
		<path class="st20" d="M193.73,693.44l85.22-1.22C278.95,692.22,226.3,699.55,193.73,693.44z"/>
		
			<radialGradient id="SVGID_21_" cx="562.1611" cy="865.3011" r="90.128" gradientTransform="matrix(1.0036 0 0 1.0133 -1.928 -7.1411)" gradientUnits="userSpaceOnUse">
			<stop  offset="0.0223" style="stop-color:#FFA41A"/>
			<stop  offset="1" style="stop-color:#FF8836"/>
		</radialGradient>
		<path class="st21" d="M434.39,867.92l255.71-2.31C690.09,865.6,562.24,882.07,434.39,867.92z"/>
		
			<radialGradient id="SVGID_22_" cx="844.4493" cy="682.9622" r="23.3615" gradientTransform="matrix(1.0036 0 0 1.0133 -1.928 -7.1411)" gradientUnits="userSpaceOnUse">
			<stop  offset="0.0223" style="stop-color:#FFA41A"/>
			<stop  offset="1" style="stop-color:#FF8836"/>
		</radialGradient>
		<path class="st22" d="M812.43,684.58l66.2-1.66C878.63,682.93,841.31,690.45,812.43,684.58z"/>
		
			<radialGradient id="SVGID_23_" cx="877.4413" cy="525.2073" r="23.1161" gradientTransform="matrix(1.0036 0 0 1.0133 -1.928 -7.1411)" gradientUnits="userSpaceOnUse">
			<stop  offset="0.0223" style="stop-color:#FFA41A"/>
			<stop  offset="1" style="stop-color:#FF8836"/>
		</radialGradient>
		<path class="st23" d="M845.92,523.63l65.46-0.91C911.37,522.73,894.97,532.44,845.92,523.63z"/>
		
			<radialGradient id="SVGID_24_" cx="821.5022" cy="345.2804" r="29.9036" gradientTransform="matrix(1.0036 0 0 1.0133 -1.928 -7.1411)" gradientUnits="userSpaceOnUse">
			<stop  offset="0.0223" style="stop-color:#FFA41A"/>
			<stop  offset="1" style="stop-color:#FF8836"/>
		</radialGradient>
		<path class="st24" d="M864.86,339.95l-84.71,2.3C780.15,342.25,833.56,350.86,864.86,339.95z"/>
		
			<radialGradient id="SVGID_25_" cx="542.2842" cy="214.7209" r="111.1434" gradientTransform="matrix(1.0036 0 0 1.0133 -1.928 -7.1411)" gradientUnits="userSpaceOnUse">
			<stop  offset="0.0223" style="stop-color:#FFA41A"/>
			<stop  offset="1" style="stop-color:#FF8836"/>
		</radialGradient>
		<path class="st25" d="M384.59,206.88l315.4,4.19C699.99,211.07,563.73,219.85,384.59,206.88z"/>
	</g>
	<path class="st1" d="M540.34,230.17c-168.77,0-305.59,138.13-305.59,308.53s136.81,308.53,305.59,308.53
		c168.76,0,305.58-138.13,305.58-308.53S709.1,230.17,540.34,230.17z M540.33,821.34c-154.6,0-279.94-126.54-279.94-282.65
		s125.34-282.66,279.94-282.66c154.61,0,279.95,126.55,279.95,282.66S694.94,821.34,540.33,821.34z"/>
	
		<radialGradient id="SVGID_26_" cx="540.3339" cy="783.5083" r="179.1313" gradientTransform="matrix(1.0036 0 0 1.0133 -1.928 -7.1411)" gradientUnits="userSpaceOnUse">
		<stop  offset="0.0223" style="stop-color:#FFA41A"/>
		<stop  offset="1" style="stop-color:#FF8836"/>
	</radialGradient>
	<path class="st26" d="M294.37,721.8c0,0,81.88,99.54,245.95,99.54c164.08,0,245.97-99.54,245.97-99.54s-79.88,129.9-245.96,129.9
		S294.37,721.8,294.37,721.8z"/>
	
		<radialGradient id="SVGID_27_" cx="540.3339" cy="783.5083" r="179.1313" gradientTransform="matrix(1.0036 0 0 1.0133 -1.928 -7.1411)" gradientUnits="userSpaceOnUse">
		<stop  offset="0.0223" style="stop-color:#FFA41A"/>
		<stop  offset="1" style="stop-color:#FF8836"/>
	</radialGradient>
	<path class="st27" d="M294.37,721.8c0,0,81.89,125.42,245.97,125.42c164.08,0,245.96-125.42,245.96-125.42
		s-79.88,129.9-245.96,129.9S294.37,721.8,294.37,721.8z"/>
	<polygon class="st1" points="325.21,357.81 496.31,354.67 750.4,352.03 754.03,356.26 494.42,359.69 321.45,362.47 	"/>
	<linearGradient id="SVGID_28_" gradientUnits="userSpaceOnUse" x1="537.7594" y1="251.6108" x2="537.7594" y2="466.8572">
		<stop  offset="0" style="stop-color:#961F63"/>
		<stop  offset="1" style="stop-color:#EA7052"/>
	</linearGradient>
	<path class="st28" d="M834.46,454.74c-7.19-4.13-18.24-10.93-34.47-21.91l-0.01-0.01c0,0-81.04-65.42-262.24-63.31
		c-174.12,2.02-260.69,72.91-260.69,72.91c-14.82,15.6-27.82,28.13-35.99,33.64c28.66-140.36,151.76-245.89,299.28-245.89
		C680.28,230.17,798.25,325.14,834.46,454.74z"/>
	
		<radialGradient id="SVGID_29_" cx="560.0724" cy="836.9164" r="30.3472" gradientTransform="matrix(1.0036 0 0 1.0133 -1.928 -7.1411)" gradientUnits="userSpaceOnUse">
		<stop  offset="0.0223" style="stop-color:#FFA41A"/>
		<stop  offset="1" style="stop-color:#FF8836"/>
	</radialGradient>
	<path class="st29" d="M518.71,850.95c-7.06-13.22,69.34-26.52,80.07-16.86c10.73,9.66-8.41,13.52-8.41,13.52L518.71,850.95z"/>
	<linearGradient id="SVGID_30_" gradientUnits="userSpaceOnUse" x1="288.0107" y1="685.2879" x2="288.0107" y2="692.3605">
		<stop  offset="0" style="stop-color:#961F63"/>
		<stop  offset="1" style="stop-color:#EA7052"/>
	</linearGradient>
	<polygon class="st30" points="271.01,684.58 302.26,687.46 305.01,691.84 275.47,692.66 	"/>
	<linearGradient id="SVGID_31_" gradientUnits="userSpaceOnUse" x1="247.7082" y1="527.8262" x2="247.7082" y2="532.8243">
		<stop  offset="0" style="stop-color:#961F63"/>
		<stop  offset="1" style="stop-color:#EA7052"/>
	</linearGradient>
	<polygon class="st31" points="234.96,527.33 260.67,528.59 260.47,531.77 234.75,533.04 	"/>
	<linearGradient id="SVGID_32_" gradientUnits="userSpaceOnUse" x1="294.8482" y1="356.2563" x2="325.2132" y2="356.2563">
		<stop  offset="0" style="stop-color:#961F63"/>
		<stop  offset="1" style="stop-color:#EA7052"/>
	</linearGradient>
	<polygon class="st32" points="298.52,350.04 325.21,357.81 321.45,362.47 294.85,355.76 	"/>
	<linearGradient id="SVGID_33_" gradientUnits="userSpaceOnUse" x1="750.405" y1="347.8156" x2="775.5285" y2="347.8156">
		<stop  offset="0" style="stop-color:#961F63"/>
		<stop  offset="1" style="stop-color:#EA7052"/>
	</linearGradient>
	<polygon class="st33" points="772.52,339.37 750.4,352.03 754.03,356.26 775.53,341.71 	"/>
	<linearGradient id="SVGID_34_" gradientUnits="userSpaceOnUse" x1="819.9013" y1="519.6016" x2="845.9156" y2="519.6016">
		<stop  offset="0" style="stop-color:#961F63"/>
		<stop  offset="1" style="stop-color:#EA7052"/>
	</linearGradient>
	<polygon class="st34" points="845.04,515.21 820.28,519.6 819.9,524 845.92,523.63 	"/>
	<linearGradient id="SVGID_35_" gradientUnits="userSpaceOnUse" x1="771.3511" y1="688.0406" x2="813.2055" y2="688.0406">
		<stop  offset="0" style="stop-color:#961F63"/>
		<stop  offset="1" style="stop-color:#EA7052"/>
	</linearGradient>
	<polygon class="st35" points="813.21,677.71 774.24,694.04 771.35,698.37 809.5,684.87 	"/>
	<path class="st1" d="M177.12,529.58c5.45-17.22,28.92-14.38,40.5,0H177.12z"/>
	<path class="st1" d="M893.69,676.75c17.68-35.13-43.51-4.71-36.67,2.34L893.69,676.75z"/>
	<polygon class="st1" points="302.26,687.46 554.45,699.78 303.61,692.66 	"/>
	<path class="st1" d="M774.24,694.04l-365.48-1.38c0,0,116.55,10.28,151.39,7.39c0,0,187.77-2.46,211.21-1.68L774.24,694.04z"/>
	
		<radialGradient id="SVGID_36_" cx="543.0336" cy="746.8491" r="62.4279" gradientTransform="matrix(1.0036 0 0 1.0133 -1.928 -7.1411)" gradientUnits="userSpaceOnUse">
		<stop  offset="0.0223" style="stop-color:#FFA41A"/>
		<stop  offset="1" style="stop-color:#FF8836"/>
	</radialGradient>
	<path class="st36" d="M466.42,780.7c21.99,26.54,174.89,3.19,152.29-31.45s-81.83-53.04-109.03-35.38
		C499.43,720.51,457.18,769.56,466.42,780.7z"/>
	
		<radialGradient id="SVGID_37_" cx="377.0035" cy="407.4166" r="50.4674" gradientTransform="matrix(1.0036 0 0 1.0133 -1.928 -7.1411)" gradientUnits="userSpaceOnUse">
		<stop  offset="0.0223" style="stop-color:#FFA41A"/>
		<stop  offset="1" style="stop-color:#FF8836"/>
	</radialGradient>
	<path class="st37" d="M318.21,404.47c-49.51,52.83,138.77,19.11,123.9-5.46C427.24,374.44,352.29,368.1,318.21,404.47z"/>
	
		<radialGradient id="SVGID_38_" cx="739.1106" cy="601.3796" r="53.6311" gradientTransform="matrix(1.0036 0 0 1.0133 -1.928 -7.1411)" gradientUnits="userSpaceOnUse">
		<stop  offset="0.0223" style="stop-color:#FFA41A"/>
		<stop  offset="1" style="stop-color:#FF8836"/>
	</radialGradient>
	<path class="st38" d="M689.69,591c1.6,37.35,57.6,109.43,90.01,39.97c32.41-69.46-19.51-94.36-51.32-84.53
		C696.58,556.27,689.42,584.75,689.69,591z"/>
	
		<radialGradient id="SVGID_39_" cx="608.8328" cy="362.3273" r="91.5606" gradientTransform="matrix(1.0036 0 0 1.0133 -1.928 -7.1411)" gradientUnits="userSpaceOnUse">
		<stop  offset="0.0223" style="stop-color:#FFA41A"/>
		<stop  offset="1" style="stop-color:#FF8836"/>
	</radialGradient>
	<path class="st39" d="M738.97,356.26l-259.79,3.68c0,0,162.4,5.68,204.75,3.13C726.28,360.51,738.97,356.26,738.97,356.26z"/>
	
		<radialGradient id="SVGID_40_" cx="448.898" cy="696.2873" r="67.8741" gradientTransform="matrix(1.0036 0 0 1.0133 -1.928 -7.1411)" gradientUnits="userSpaceOnUse">
		<stop  offset="0.0223" style="stop-color:#FFA41A"/>
		<stop  offset="1" style="stop-color:#FF8836"/>
	</radialGradient>
	<path class="st40" d="M352.34,694.04l192.47,5.73C544.81,699.78,457.2,709.28,352.34,694.04z"/>
</g>
</svg>
